<svg width="140" height="80" viewBox="0 0 140 80" fill="none" xmlns="http://www.w3.org/2000/svg">
<g id="01-dark 1">
<path id="Vector" d="M16.5503 50.26H37.0703V29.74H16.5503V50.26ZM33.1207 38.0256H28.7847V33.6896H33.1207V38.0256ZM20.4991 33.6896H24.8375V41.9744H33.1207V46.3104H20.4991V33.6896ZM50.4327 29.74C48.4031 29.74 46.4199 30.3416 44.7327 31.4696C43.0455 32.5976 41.7303 34.1992 40.9535 36.0744C40.1767 37.9496 39.9735 40.012 40.3695 42.0024C40.7655 43.9928 41.7423 45.8208 43.1775 47.256C44.6127 48.6912 46.4407 49.668 48.4311 50.064C50.4215 50.46 52.4847 50.2568 54.3591 49.48C56.2335 48.7032 57.8359 47.3888 58.9639 45.7008C60.0919 44.0128 60.6927 42.0296 60.6927 40.0008C60.6895 37.2806 59.6075 34.6728 57.6841 32.7494C55.7607 30.8259 53.1528 29.7432 50.4327 29.74ZM50.4327 46.3104C49.1845 46.3102 47.9645 45.94 46.9267 45.2465C45.8889 44.5531 45.08 43.5675 44.6023 42.4144C44.1249 41.2613 44.0001 39.9926 44.2436 38.7686C44.4871 37.5446 45.088 36.4202 45.9703 35.5376C46.8529 34.6553 47.9773 34.0544 49.2013 33.8109C50.4253 33.5674 51.694 33.6922 52.8471 34.1696C54.0001 34.6473 54.9856 35.456 55.6791 36.4936C56.3727 37.5312 56.7423 38.7512 56.7423 39.9992C56.7398 41.672 56.0741 43.2756 54.8912 44.4585C53.7083 45.6414 52.1047 46.3071 50.4319 46.3096L50.4327 46.3104ZM97.4087 29.74C95.3791 29.74 93.3951 30.3416 91.7079 31.4688C90.0207 32.596 88.7055 34.1984 87.9287 36.0728C87.1518 37.9475 86.9486 40.0105 87.3447 42.0008C87.7407 43.9912 88.7175 45.8192 90.1527 47.2544C91.5875 48.6895 93.4158 49.6668 95.4063 50.0624C97.3959 50.4584 99.4591 50.2552 101.334 49.4784C103.209 48.7016 104.811 47.3872 105.938 45.6992C107.066 44.0123 107.667 42.0289 107.667 40C107.664 37.28 106.582 34.6723 104.659 32.7489C102.736 30.8255 100.128 29.7434 97.4079 29.74H97.4087ZM97.4087 46.3104C96.1605 46.3104 94.9403 45.9404 93.9024 45.2471C92.8645 44.5538 92.0554 43.5683 91.5775 42.4152C91.0998 41.262 90.9748 39.993 91.2183 38.7688C91.4614 37.5445 92.0626 36.4199 92.9455 35.5376C93.8281 34.655 94.9525 34.054 96.1767 33.8104C97.4007 33.5672 98.6695 33.692 99.8223 34.1696C100.976 34.6471 101.961 35.4559 102.655 36.4936C103.348 37.5312 103.718 38.7512 103.718 39.9992C103.716 41.672 103.05 43.2752 101.867 44.4584C100.684 45.6411 99.0812 46.3076 97.4087 46.3104ZM73.9207 29.74C71.8911 29.74 69.9071 30.3416 68.2199 31.4696C66.5323 32.5967 65.2169 34.1991 64.4404 36.074C63.6638 37.9489 63.461 40.0121 63.8575 42.0024C64.2535 43.9928 65.2303 45.8208 66.6655 47.256C68.1007 48.6912 69.9287 49.668 71.9183 50.064C73.9079 50.46 75.9719 50.2568 77.8463 49.48C79.7213 48.7036 81.3239 47.3884 82.4511 45.7008C83.5783 44.0132 84.1799 42.0294 84.1799 40C84.1767 37.2798 83.0947 34.672 81.1713 32.7486C79.2479 30.8251 76.6408 29.7432 73.9207 29.74ZM73.9207 46.3104C72.7578 46.3109 71.6174 45.9902 70.6253 45.3836C69.6331 44.777 68.8279 43.9081 68.2983 42.8728C67.7691 41.8374 67.5361 40.6759 67.6252 39.5165C67.7143 38.3571 68.1219 37.2448 68.8031 36.3024C69.4847 35.36 70.4135 34.6248 71.4863 34.1768C72.5591 33.7288 73.7351 33.5864 74.8847 33.7648C76.0338 33.9431 77.1113 34.4353 77.9983 35.1872C78.8847 35.9392 79.5471 36.9216 79.9111 38.0256H73.9207V41.9744H79.9111C79.4944 43.2346 78.6915 44.3317 77.6163 45.11C76.541 45.8883 75.248 46.3083 73.9207 46.3104Z" fill="#858C97"/>
</g>
</svg>
