<svg width="157" height="80" viewBox="0 0 157 80" fill="none" xmlns="http://www.w3.org/2000/svg">
<g id="02-dark 1">
<path id="Vector" d="M40.3321 38.6968C40.0287 39.0016 39.7963 39.3697 39.6516 39.7748C39.507 40.1799 39.4536 40.6119 39.4953 41.04L39.4809 41.0256C39.5233 41.5296 39.4553 42.0368 39.2817 42.5112C39.1079 42.9861 38.8328 43.4175 38.4753 43.7752C38.1177 44.1328 37.6863 44.4081 37.2113 44.5816C36.7361 44.7552 36.2297 44.8232 35.7257 44.7808L35.7401 44.7952C35.1378 44.7401 34.5331 44.872 34.0083 45.1727C33.4835 45.4735 33.0641 45.9286 32.8071 46.4761C32.5501 47.0237 32.468 47.6371 32.5719 48.233C32.6759 48.8288 32.9609 49.3782 33.3881 49.8064C33.8167 50.2332 34.3663 50.5176 34.9623 50.6209C35.5582 50.7243 36.1715 50.6416 36.7188 50.3841C37.2661 50.1266 37.7208 49.7067 38.021 49.1817C38.3213 48.6566 38.4525 48.0519 38.3969 47.4496L38.4121 47.464C38.3697 46.96 38.4377 46.4528 38.6113 45.9784C38.7851 45.5035 39.0603 45.0721 39.4177 44.7144C39.7753 44.3567 40.2067 44.0815 40.6817 43.908C41.1569 43.7344 41.6633 43.6664 42.1673 43.7088L42.1521 43.6944C42.6445 43.7389 43.1403 43.6584 43.5933 43.4602C44.0463 43.2621 44.4419 42.9527 44.7434 42.5608C45.045 42.169 45.2426 41.7073 45.3181 41.2186C45.3936 40.73 45.3445 40.2302 45.1753 39.7656C45.0065 39.301 44.7231 38.8865 44.3513 38.5606C43.9796 38.2348 43.5317 38.008 43.049 37.9014C42.5662 37.7948 42.0644 37.8118 41.5901 37.9509C41.1157 38.0899 40.6841 38.3465 40.3353 38.6968H40.3321ZM34.4361 42.9088L34.4209 42.8944C34.8492 42.9377 35.2818 42.8852 35.6873 42.7408C36.0928 42.5964 36.4612 42.3636 36.7657 42.0593C37.0702 41.7551 37.3032 41.3869 37.448 40.9815C37.5927 40.576 37.6455 40.1435 37.6025 39.7152L37.6177 39.7296C37.5753 39.2256 37.6433 38.7184 37.8169 38.244C37.9907 37.7691 38.2659 37.3377 38.6233 36.98C38.9809 36.6223 39.4123 36.3471 39.8873 36.1736C40.3625 36 40.8689 35.932 41.3729 35.9744L41.3577 35.96C41.9606 36.0165 42.5662 35.8858 43.0921 35.5856C43.6182 35.2858 44.0388 34.8306 44.2961 34.2824C44.5536 33.7345 44.6359 33.1205 44.5319 32.5241C44.4278 31.9277 44.1424 31.3779 43.7145 30.9496C43.2865 30.5216 42.7369 30.236 42.1401 30.132C41.6944 30.0544 41.2368 30.0806 40.8028 30.2086C40.3689 30.3365 39.9702 30.5628 39.6379 30.8697C39.3055 31.1767 39.0484 31.5562 38.8865 31.9786C38.7245 32.401 38.6621 32.8551 38.7041 33.3056L38.6897 33.2904C38.7321 33.7944 38.6641 34.3016 38.4913 34.7768C38.3185 35.252 38.0425 35.6832 37.6849 36.0408C37.3273 36.3984 36.8959 36.6737 36.4209 36.8472C35.9457 37.0208 35.4385 37.0888 34.9345 37.0456L34.9489 37.0608C34.5206 37.0175 34.088 37.07 33.6825 37.2144C33.277 37.3588 32.9086 37.5916 32.6041 37.8959C32.2996 38.2001 32.0666 38.5683 31.9218 38.9737C31.7771 39.3791 31.7243 39.8117 31.7673 40.24L31.7529 40.2256C31.7953 40.7296 31.7273 41.2368 31.5537 41.7112C31.3801 42.1856 31.1049 42.6176 30.7473 42.9744C30.3897 43.3312 29.9585 43.6072 29.4833 43.7808C29.0081 43.9544 28.5017 44.0224 27.9977 43.98L28.0121 43.9944C27.5616 43.9524 27.1075 44.0148 26.6851 44.1768C26.2627 44.3387 25.8832 44.5958 25.5763 44.9282C25.2693 45.2605 25.043 45.6592 24.9151 46.0931C24.7872 46.5271 24.7609 46.9847 24.8385 47.4304C24.9425 48.0272 25.2281 48.5768 25.6561 49.0048C26.0841 49.4328 26.6337 49.7184 27.2305 49.8224C27.6762 49.9 28.1338 49.8737 28.5678 49.7458C29.0017 49.6178 29.4004 49.3916 29.7327 49.0846C30.0651 48.7777 30.3222 48.3982 30.4841 47.9758C30.6461 47.5533 30.7085 47.0993 30.6665 46.6488L30.6817 46.6632C30.6393 46.1592 30.7073 45.652 30.8809 45.1776C31.0547 44.7027 31.3299 44.2713 31.6873 43.9136C32.0449 43.5559 32.4763 43.2807 32.9513 43.1072C33.4265 42.9336 33.9329 42.8656 34.4369 42.908L34.4361 42.9088ZM29.0721 41.3032C29.3754 40.9983 29.6076 40.6301 29.7521 40.2251C29.8967 39.82 29.9499 39.388 29.9081 38.96L29.9233 38.9744C29.8809 38.4703 29.9489 37.9631 30.1225 37.488C30.296 37.0128 30.5716 36.5813 30.9297 36.224C31.2874 35.8665 31.7188 35.5914 32.1937 35.4176C32.6689 35.244 33.1761 35.176 33.6801 35.2192L33.6649 35.2048C34.2673 35.2616 34.8729 35.1304 35.3985 34.8304C35.9238 34.5299 36.3437 34.0748 36.6011 33.5271C36.8584 32.9795 36.9408 32.3658 36.8369 31.7696C36.7329 31.1736 36.4473 30.624 36.0193 30.196C35.5913 29.768 35.0417 29.4824 34.4457 29.3784C33.8497 29.2744 33.2361 29.356 32.6881 29.6136C32.1403 29.8712 31.6853 30.2913 31.3849 30.8168C31.0841 31.3424 30.9537 31.9472 31.0105 32.5504L30.9961 32.536C31.0385 33.04 30.9705 33.5472 30.7969 34.0216C30.6231 34.4965 30.348 34.9279 29.9905 35.2856C29.6329 35.6432 29.2015 35.9185 28.7265 36.092C28.2513 36.2656 27.7449 36.3336 27.2409 36.2912L27.2553 36.3056C26.7629 36.2612 26.2673 36.3419 25.8144 36.5401C25.3615 36.7383 24.966 37.0477 24.6646 37.4395C24.3632 37.8314 24.1655 38.293 24.0901 38.7816C24.0146 39.2701 24.0637 39.7699 24.2329 40.2344C24.4879 40.9362 25.0007 41.5144 25.667 41.8515C26.3332 42.1885 27.1029 42.2591 27.8193 42.0488C28.2938 41.9099 28.7256 41.6534 29.0745 41.3032H29.0721ZM53.8561 33.324H56.2321V44.8864H53.8561V33.324ZM57.5753 40.9272C57.5722 40.0963 57.8156 39.2832 58.2747 38.5907C58.7338 37.8982 59.388 37.3574 60.1545 37.0368C60.9211 36.7163 61.7656 36.6308 62.5809 36.7912C63.3961 36.9512 64.1457 37.3496 64.7345 37.936C65.3233 38.5224 65.7249 39.2704 65.8881 40.0848C66.0513 40.8992 65.9697 41.7448 65.6521 42.5128C65.3347 43.2805 64.7967 43.9369 64.1062 44.3988C63.4157 44.8608 62.6037 45.1076 61.7729 45.108C61.2217 45.1144 60.6737 45.0104 60.1633 44.8032C59.6524 44.5955 59.188 44.2881 58.7973 43.899C58.4065 43.5099 58.0972 43.0468 57.8873 42.5368C57.6773 42.0266 57.5715 41.4796 57.5761 40.928L57.5753 40.9272ZM63.5945 40.9272C63.5844 40.5691 63.469 40.222 63.2629 39.9291C63.0567 39.6361 62.7689 39.4104 62.4353 39.28C62.1017 39.1496 61.7369 39.1208 61.3865 39.1968C61.0364 39.2729 60.7165 39.4505 60.4667 39.7073C60.2168 39.9641 60.0482 40.2887 59.9817 40.6408C59.9324 40.9041 59.9416 41.175 60.0088 41.4343C60.076 41.6936 60.1995 41.9349 60.3704 42.1411C60.5414 42.3473 60.7557 42.5133 60.9981 42.6273C61.2405 42.7413 61.505 42.8006 61.7729 42.8008C62.0183 42.8075 62.2624 42.7632 62.4899 42.6708C62.7173 42.5783 62.9231 42.4397 63.0943 42.2637C63.2655 42.0878 63.3983 41.8782 63.4844 41.6483C63.5705 41.4184 63.608 41.1723 63.5945 40.9272ZM75.4425 36.9672V44.4872C75.4425 47.148 73.3673 48.2728 71.2609 48.2728C70.5193 48.328 69.7768 48.1783 69.1145 47.84C68.4521 47.5017 67.8959 46.987 67.5073 46.3528L69.5345 45.1808C69.6977 45.5112 69.9585 45.784 70.2809 45.9624C70.6037 46.1407 70.9733 46.2161 71.3401 46.1784C71.5745 46.2112 71.8129 46.1904 72.0385 46.1176C72.2641 46.0448 72.4697 45.9232 72.6417 45.7608C72.8137 45.5981 72.9469 45.3988 73.0313 45.1776C73.1161 44.9565 73.1498 44.7191 73.1297 44.4832V43.76C72.8515 44.1006 72.4972 44.371 72.0953 44.5496C71.6934 44.7281 71.2554 44.8103 70.8161 44.7896C69.7662 44.7639 68.7679 44.3289 68.0344 43.5772C67.301 42.8256 66.8904 41.817 66.8904 40.7668C66.8904 39.7166 67.301 38.708 68.0344 37.9564C68.7679 37.2047 69.7662 36.7696 70.8161 36.744C71.2554 36.723 71.6935 36.8052 72.0953 36.984C72.4977 37.1632 72.8513 37.4336 73.1297 37.7736V36.9656L75.4425 36.9672ZM73.1305 40.768C73.1464 40.3851 73.0474 40.0063 72.8462 39.6801C72.645 39.354 72.3508 39.0956 72.0015 38.938C71.6522 38.7805 71.2637 38.7311 70.8861 38.7962C70.5085 38.8612 70.1589 39.0378 69.8825 39.3032C69.6061 39.5686 69.4155 39.9107 69.3351 40.2854C69.2548 40.6601 69.2884 41.0503 69.4316 41.4057C69.5749 41.7612 69.8212 42.0656 70.139 42.2799C70.4567 42.4941 70.8313 42.6084 71.2145 42.608C71.4642 42.6255 71.7148 42.5906 71.9502 42.5053C72.1856 42.4201 72.4005 42.2865 72.581 42.1132C72.7616 41.9398 72.9039 41.7306 72.9987 41.4989C73.0934 41.2672 73.1378 41.0182 73.1305 40.768ZM76.7881 40.9272C76.785 40.0963 77.0284 39.2832 77.4875 38.5907C77.9466 37.8982 78.6008 37.3574 79.3673 37.0368C80.1339 36.7163 80.9784 36.6308 81.7937 36.7912C82.609 36.9514 83.3585 37.3498 83.9473 37.936C84.5361 38.5224 84.9377 39.2704 85.1009 40.0848C85.2641 40.8992 85.1825 41.7448 84.8649 42.5128C84.5475 43.2805 84.0095 43.9369 83.319 44.3988C82.6285 44.8608 81.8165 45.1076 80.9857 45.108C80.434 45.1142 79.8866 45.0106 79.3753 44.8032C78.8644 44.5955 78.4001 44.2881 78.0093 43.899C77.6185 43.5099 77.3092 43.0468 77.0993 42.5368C76.8893 42.0266 76.7835 41.4788 76.7881 40.9272ZM82.8081 40.9272C82.7979 40.569 82.6824 40.2218 82.4761 39.9288C82.2702 39.6356 81.9821 39.4098 81.6481 39.28C81.3145 39.1496 80.9497 39.1208 80.5993 39.1968C80.2496 39.2735 79.9303 39.4514 79.681 39.7083C79.4317 39.9652 79.2635 40.2898 79.1974 40.6416C79.1313 40.9935 79.1702 41.357 79.3092 41.6869C79.4483 42.0167 79.6813 42.2984 79.9793 42.4968C80.2781 42.695 80.6287 42.8007 80.9873 42.8008C81.2327 42.8073 81.4767 42.7629 81.704 42.6704C81.9314 42.5778 82.137 42.4392 82.3081 42.2632C82.4792 42.0872 82.6121 41.8777 82.6985 41.648C82.7849 41.4184 82.8217 41.1728 82.8089 40.928L82.8081 40.9272ZM86.2873 34.8448C86.2871 34.6339 86.3337 34.4257 86.4238 34.235C86.5139 34.0443 86.6452 33.8761 86.8083 33.7424C86.9713 33.6086 87.162 33.5128 87.3666 33.4617C87.5712 33.4107 87.7846 33.4057 87.9913 33.4472C88.1982 33.488 88.3935 33.5743 88.5631 33.6998C88.7326 33.8253 88.8721 33.9869 88.9715 34.1729C89.071 34.359 89.1279 34.5648 89.1381 34.7754C89.1483 34.9861 89.1115 35.1964 89.0305 35.3912C88.9225 35.652 88.7393 35.8744 88.5049 36.0312C88.2705 36.1878 87.9948 36.2714 87.7129 36.2712C87.336 36.2674 86.9755 36.116 86.709 35.8495C86.4425 35.583 86.2911 35.2217 86.2873 34.8448ZM86.5273 36.9672H88.9041V44.8872H86.5241L86.5273 36.9672ZM99.1649 40.9272C99.1923 41.4506 99.1159 41.9742 98.9401 42.468C98.7646 42.962 98.493 43.4164 98.1409 43.8048C97.7896 44.1935 97.3645 44.5087 96.8905 44.732C96.4163 44.9553 95.9028 45.0831 95.3793 45.108C94.9385 45.132 94.4985 45.0576 94.0905 44.8904C93.6826 44.7231 93.317 44.4674 93.0201 44.1416V48.0544H90.6441V36.9672H93.0201V37.7112C93.3169 37.3852 93.6825 37.1294 94.0905 36.9624C94.4985 36.7952 94.9385 36.7216 95.3793 36.7456C95.9025 36.7696 96.4161 36.8976 96.8905 37.1216C97.3646 37.3452 97.7898 37.6603 98.1417 38.0488C98.4935 38.4375 98.7651 38.8918 98.9409 39.3856C99.1161 39.8798 99.1922 40.4036 99.1649 40.9272ZM96.7889 40.9272C96.7792 40.5566 96.6605 40.1972 96.4479 39.8936C96.2352 39.59 95.9378 39.3557 95.5929 39.22C95.2473 39.0848 94.8705 39.0536 94.5081 39.132C94.1455 39.2097 93.814 39.3928 93.5553 39.6584C93.2964 39.9239 93.1214 40.2597 93.0521 40.624C92.9832 40.9883 93.0235 41.3649 93.1681 41.7064C93.3122 42.048 93.5537 42.3396 93.8625 42.5448C94.1714 42.7501 94.534 42.8595 94.9049 42.8592C95.1595 42.8706 95.4135 42.8281 95.6505 42.7344C95.8873 42.6408 96.1017 42.4976 96.2793 42.3152C96.4571 42.1325 96.5945 41.9145 96.6825 41.6752C96.7704 41.4359 96.8066 41.1815 96.7889 40.9272ZM106.499 42.5104C106.499 44.332 104.916 45.108 103.206 45.108C102.515 45.1707 101.821 45.0244 101.214 44.688C100.607 44.3519 100.114 43.8417 99.8001 43.2232L101.859 42.0512C101.942 42.337 102.121 42.5856 102.366 42.7555C102.61 42.9255 102.905 43.0067 103.203 42.9856C103.772 42.9856 104.058 42.8112 104.058 42.4952C104.058 41.6232 100.161 42.0832 100.161 39.3432C100.161 37.616 101.619 36.7456 103.266 36.7456C103.885 36.7261 104.498 36.873 105.041 37.171C105.584 37.469 106.038 37.9072 106.354 38.44L104.327 39.5328C104.238 39.3256 104.09 39.1488 103.901 39.0248C103.712 38.9008 103.491 38.8352 103.266 38.836C102.854 38.836 102.6 38.996 102.6 39.2792C102.603 40.1824 106.499 39.58 106.499 42.5104ZM115.175 36.9672V44.8872H112.799V44.1424C112.525 44.4712 112.177 44.7304 111.783 44.8984C111.39 45.0665 110.962 45.1389 110.535 45.1096C108.935 45.1096 107.575 43.9696 107.575 41.8296V36.968H109.951V41.4816C109.931 41.6704 109.953 41.8608 110.015 42.0408C110.075 42.2205 110.175 42.3846 110.307 42.5216C110.438 42.6586 110.597 42.7653 110.774 42.8344C110.95 42.904 111.139 42.9336 111.329 42.9224C112.2 42.9224 112.802 42.416 112.802 41.2912V36.9712L115.175 36.9688V36.9672ZM128.798 40.024V44.8864H126.422V40.2296C126.422 39.4376 126.042 38.9312 125.282 38.9312C124.49 38.9312 124.046 39.4856 124.046 40.42V44.8864H121.671V40.2296C121.671 39.4376 121.291 38.9312 120.53 38.9312C119.738 38.9312 119.295 39.4856 119.295 40.42V44.8864H116.919V36.9664H119.295V37.6944C119.541 37.3715 119.864 37.1154 120.235 36.9495C120.606 36.7836 121.012 36.7133 121.417 36.7448C121.823 36.7253 122.228 36.8113 122.592 36.9943C122.955 37.1774 123.265 37.4514 123.491 37.7896C123.754 37.4353 124.103 37.1537 124.505 36.9709C124.907 36.7882 125.348 36.7104 125.788 36.7448C127.607 36.7456 128.798 38.044 128.798 40.024ZM130.807 36.9184C131.781 36.9184 132.571 36.1288 132.571 35.1552C132.571 34.1816 131.781 33.392 130.807 33.392C129.834 33.392 129.044 34.1816 129.044 35.1552C129.044 36.1288 129.834 36.9184 130.807 36.9184Z" fill="#858C97"/>
</g>
</svg>
