<svg width="157" height="80" viewBox="0 0 157 80" fill="none" xmlns="http://www.w3.org/2000/svg">
<g id="03-dark 1">
<path id="Vector" d="M78.1542 45.8992H74.0582V34.9488H78.1542V45.8992ZM74.4582 45.4992H77.7542V35.3488H74.4582V45.4992ZM83.8534 45.8992H79.8398V34.9488H88.2254C89.4267 34.8517 90.6229 35.1889 91.5966 35.8992C92.0158 36.2824 92.3406 36.7576 92.5462 37.2872C92.751 37.8171 92.831 38.3871 92.7798 38.9528C92.8399 39.9304 92.5287 40.8947 91.9086 41.6528C91.175 42.4944 89.9542 42.928 88.2806 42.9432H83.8558L83.8534 45.8992ZM80.2374 45.4992H83.4534V42.5392H83.6542H88.271C89.8302 42.5256 90.951 42.1392 91.6062 41.3848C92.1581 40.6988 92.4322 39.8306 92.3742 38.952C92.4238 38.4448 92.355 37.9336 92.175 37.4576C91.9945 36.9813 91.7068 36.5529 91.3342 36.2056C90.4318 35.5576 89.327 35.2536 88.2198 35.348H80.2398L80.2374 45.4992ZM87.3758 40.4832H83.4262V37.5024H87.4022C87.6841 37.4634 87.9712 37.4963 88.2369 37.5979C88.5027 37.6996 88.7384 37.8668 88.9222 38.084C89.0894 38.3616 89.1678 38.6832 89.1478 39.0064C89.163 39.3064 89.0982 39.6056 88.9598 39.872C88.7702 40.1008 88.5246 40.2768 88.247 40.3832C87.9697 40.4898 87.6697 40.5232 87.3758 40.48V40.4832ZM83.8262 40.0832H87.3758C88.0318 40.0832 88.4382 39.9464 88.6182 39.6648C88.7173 39.4601 88.7622 39.2334 88.7486 39.0064C88.7662 38.768 88.7142 38.5296 88.5998 38.32L88.595 38.3128C88.4046 38.0328 88.0262 37.9024 87.4022 37.9024H83.8262V40.0832ZM100.08 46.0608C96.4878 46.0608 94.3438 45.1688 93.527 43.3344C93.3934 42.98 93.303 42.6112 93.2566 42.2352L93.2214 42.0048H97.495L97.523 42.1728C97.5561 42.3434 97.6284 42.5038 97.7342 42.6416C97.903 42.8456 98.4662 43.188 100.335 43.188C102.581 43.188 102.581 42.7936 102.581 42.5816C102.581 42.224 102.321 42.1016 100.489 41.9064L100.141 41.8736L98.1814 41.692C94.8214 41.388 93.3214 40.344 93.3214 38.308C93.3214 36.1696 95.8742 34.788 99.8254 34.788C103.049 34.788 105.125 35.6376 105.997 37.3152C106.203 37.7055 106.342 38.128 106.407 38.5648L106.435 38.7896H102.157L102.139 38.6088C102.123 38.4675 102.062 38.3348 101.966 38.2296C101.806 38.0152 101.301 37.6608 99.731 37.6608C97.8038 37.6608 97.5382 37.9072 97.5382 38.1728C97.5382 38.5272 98.147 38.6528 100.098 38.8616L102.668 39.1168C105.485 39.4224 106.741 40.4408 106.741 42.42C106.742 44.08 105.586 46.0608 100.08 46.0608ZM93.6886 42.4048C93.7285 42.6687 93.7975 42.9273 93.8942 43.176C94.6382 44.8472 96.6622 45.6608 100.08 45.6608C102.937 45.6608 106.345 45.1008 106.345 42.42C106.345 40.6656 105.233 39.7968 102.625 39.5144L100.065 39.2592C97.9854 39.0336 97.1398 38.9136 97.1398 38.1728C97.1398 37.4064 98.051 37.2608 99.7326 37.2608C101.061 37.2608 101.92 37.5008 102.284 37.9848C102.383 38.1041 102.458 38.2416 102.505 38.3896H105.972C105.902 38.08 105.792 37.7816 105.644 37.5008C104.844 35.9656 102.889 35.188 99.827 35.188C96.119 35.188 93.723 36.4128 93.723 38.308C93.723 40.116 95.0678 41.0088 98.2182 41.2936L100.181 41.476L100.531 41.5088C102.233 41.688 102.983 41.8 102.983 42.5816C102.983 43.4232 102.013 43.588 100.337 43.588C98.7862 43.588 97.807 43.3552 97.4286 42.8968C97.3118 42.7504 97.2238 42.584 97.1694 42.4048H93.6886ZM114.341 46.0472C110.165 46.0472 107.861 44.3584 107.861 41.2912V34.9488H111.903V41.2912C111.903 42.3432 112.845 42.9464 114.485 42.9464C116.053 42.9464 117.027 42.3168 117.027 41.3048V34.9488H121.027V41.6272C121.031 44.436 118.592 46.0472 114.339 46.0472H114.341ZM108.261 35.3488V41.2912C108.261 45.0816 112.068 45.6472 114.341 45.6472C116.692 45.6472 120.633 45.1248 120.633 41.6272V35.3488H117.433V41.3048C117.433 42.5448 116.278 43.3464 114.492 43.3464C112.625 43.3464 111.509 42.5784 111.509 41.2912V35.3488H108.261ZM137.977 45.8992H134.163V40.9552L132 45.8992H128.673L126.532 40.9648V45.8992H122.704V34.9488H127.739L130.355 40.9864L133.097 34.9488H137.982L137.977 45.8992ZM134.563 45.4992H137.577V35.3488H133.352L130.342 41.972L127.473 35.3488H123.101V45.4992H126.129V39.04L128.929 45.5016H131.729L134.558 39.0496L134.563 45.4992ZM22.443 35.1488H18.7998V45.6992H28.867V42.8904H22.443V35.1488ZM36.2206 34.9088C31.5702 34.9088 29.1246 37.1128 29.1246 40.3488C29.1246 44.0048 31.6918 45.8592 36.2206 45.8592C41.2062 45.8592 43.303 43.7088 43.303 40.3488C43.303 36.9368 40.9374 34.9072 36.2206 34.9072V34.9088ZM36.207 37.6504C36.5238 37.6488 36.8398 37.6672 37.1542 37.7056L33.0814 41.7784C32.8886 41.3425 32.7946 40.8693 32.8062 40.3928C32.8062 38.7376 33.6398 37.6488 36.207 37.6488V37.6504ZM36.2206 43.1608C35.9158 43.1624 35.611 43.1448 35.3078 43.1096L39.3878 39.0296C39.5734 39.4584 39.6622 39.9224 39.6478 40.3896C39.6478 42 38.8798 43.1592 36.2206 43.1592V43.1608ZM50.5214 41.7208H54.271C54.2158 41.981 54.1008 42.2248 53.935 42.4328C53.1574 43.0664 52.1654 43.3744 51.1662 43.2928C50.6632 43.3467 50.1545 43.2919 49.6745 43.1319C49.1946 42.9719 48.7547 42.7106 48.3846 42.3656C48.0054 41.8096 47.8254 41.1416 47.8734 40.4704C47.8118 39.7672 48.0078 39.0656 48.4246 38.4952C48.9486 37.9032 49.8358 37.648 51.1398 37.648C51.9694 37.5792 52.7982 37.7928 53.4918 38.2528C53.7104 38.4265 53.8739 38.66 53.9622 38.9248H57.4398C57.4145 38.4884 57.3096 38.0603 57.1302 37.6616C56.2974 35.968 54.3614 34.96 51.0694 34.96C48.2062 34.96 46.2846 35.8336 45.223 37.1512C44.5219 38.1027 44.162 39.2628 44.2014 40.444C44.1559 41.652 44.5065 42.8417 45.1998 43.832C46.2486 45.192 48.1166 45.8608 50.3614 45.8608C51.8539 45.965 53.3361 45.547 54.5542 44.6784L54.6486 45.6992H57.5374V39.4496H50.5214V41.7208ZM65.7366 34.9064C61.087 34.9064 58.6406 37.1104 58.6406 40.3464C58.6406 44.0024 61.207 45.8568 65.7366 45.8568C70.723 45.8568 72.8198 43.7064 72.8198 40.3464C72.8198 36.9368 70.4542 34.9064 65.7366 34.9064ZM65.7238 37.648C66.0318 37.6472 66.3398 37.6648 66.6462 37.7008L62.5894 41.76C62.403 41.3288 62.3118 40.8624 62.323 40.3928C62.3198 38.7376 63.1566 37.648 65.7238 37.648ZM65.7366 43.1584C65.4235 43.1597 65.1106 43.1416 64.7998 43.104L68.8934 39.0096C69.086 39.444 69.1782 39.9163 69.163 40.3912C69.1646 42 68.3998 43.1584 65.7366 43.1584Z" fill="#858C97"/>
</g>
</svg>
