<svg width="157" height="80" viewBox="0 0 157 80" fill="none" xmlns="http://www.w3.org/2000/svg">
<g id="04-dark 1">
<path id="Vector" d="M37.1575 31.72V28.32H26.4375V51.68H37.1575V48.28C34.9615 48.28 32.8555 47.4076 31.3027 45.8548C29.7499 44.302 28.8775 42.196 28.8775 40C28.8775 37.804 29.7499 35.698 31.3027 34.1452C32.8555 32.5924 34.9615 31.72 37.1575 31.72Z" fill="#858C97"/>
<path id="Vector_2" d="M37.1626 31.72V48.28C39.3586 48.28 41.4646 47.4076 43.0174 45.8548C44.5702 44.302 45.4426 42.196 45.4426 40C45.4426 37.804 44.5702 35.6979 43.0174 34.1451C41.4646 32.5923 39.3586 31.72 37.1626 31.72ZM51.4562 33.8H53.8562V45.36H51.4562V33.8ZM55.201 41.4C55.2011 40.5683 55.4481 39.7554 55.9107 39.0642C56.3733 38.3731 57.0307 37.8349 57.7995 37.5177C58.5684 37.2006 59.4141 37.1189 60.2294 37.2829C61.0447 37.447 61.793 37.8494 62.3794 38.4392C62.9657 39.029 63.3636 39.7796 63.5229 40.5958C63.6821 41.412 63.5955 42.2571 63.2739 43.0241C62.9524 43.791 62.4104 44.4452 61.7166 44.9038C61.0229 45.3623 60.2086 45.6046 59.377 45.6C58.8254 45.6043 58.2784 45.4984 57.7683 45.2886C57.2581 45.0787 56.7949 44.7691 56.406 44.3779C56.017 43.9868 55.7101 43.5218 55.5032 43.0105C55.2963 42.4991 55.1935 41.9516 55.201 41.4ZM61.217 41.4C61.2075 41.0415 61.0925 40.6937 60.8865 40.4002C60.6804 40.1067 60.3924 39.8804 60.0584 39.7497C59.7244 39.619 59.3593 39.5896 59.0087 39.6653C58.6582 39.741 58.3377 39.9183 58.0874 40.1752C57.8371 40.4321 57.6682 40.757 57.6016 41.1095C57.535 41.4619 57.5738 41.8261 57.7132 42.1566C57.8525 42.487 58.0862 42.7691 58.3849 42.9675C58.6837 43.1659 59.0343 43.2718 59.393 43.272C59.6372 43.2767 59.8798 43.2311 60.1055 43.1378C60.3313 43.0446 60.5354 42.9058 60.7051 42.7301C60.8748 42.5544 61.0064 42.3456 61.0917 42.1167C61.177 41.8879 61.2142 41.6439 61.201 41.4H61.217ZM73.049 37.44V44.968C73.049 47.624 70.969 48.752 68.865 48.752C68.1229 48.8129 67.3785 48.6654 66.7156 48.3262C66.0527 47.987 65.4977 47.4695 65.113 46.832L67.137 45.664C67.301 45.9947 67.5619 46.2675 67.8849 46.4462C68.2079 46.6248 68.5777 46.7008 68.945 46.664C69.179 46.6928 69.4164 46.6696 69.6404 46.5959C69.8643 46.5223 70.0692 46.4001 70.2405 46.238C70.4117 46.076 70.545 45.8781 70.6308 45.6586C70.7167 45.439 70.7529 45.2032 70.737 44.968V44.24C70.4577 44.5786 70.1033 44.8474 69.702 45.0252C69.3007 45.203 68.8634 45.2847 68.425 45.264C67.3641 45.264 66.3467 44.8425 65.5966 44.0924C64.8464 43.3423 64.425 42.3248 64.425 41.264C64.425 40.2031 64.8464 39.1857 65.5966 38.4355C66.3467 37.6854 67.3641 37.264 68.425 37.264C68.8634 37.2432 69.3007 37.325 69.702 37.5027C70.1033 37.6805 70.4577 37.9494 70.737 38.288V37.488L73.049 37.44ZM70.737 41.24C70.7527 40.8574 70.6537 40.4788 70.4527 40.1529C70.2516 39.827 69.9577 39.5686 69.6086 39.4111C69.2596 39.2535 68.8715 39.2039 68.494 39.2686C68.1166 39.3334 67.7672 39.5095 67.4906 39.7744C67.214 40.0394 67.023 40.3811 66.9421 40.7556C66.8613 41.13 66.8943 41.5201 67.0369 41.8756C67.1795 42.2312 67.4253 42.5359 67.7425 42.7507C68.0597 42.9654 68.4339 43.0804 68.817 43.0808C69.067 43.0988 69.3179 43.0642 69.5537 42.9791C69.7894 42.8941 70.0047 42.7606 70.1857 42.5872C70.3666 42.4138 70.5092 42.2044 70.6041 41.9725C70.6991 41.7405 70.7444 41.4905 70.737 41.24ZM74.4002 41.4C74.4005 40.5691 74.6471 39.7571 75.109 39.0664C75.5709 38.3758 76.2272 37.8377 76.9949 37.5201C77.7627 37.2026 78.6074 37.1199 79.4221 37.2825C80.2369 37.4451 80.9851 37.8457 81.5722 38.4336C82.1594 39.0216 82.5586 39.7712 82.7202 40.5864C82.8818 41.4016 82.797 42.2464 82.4778 43.0136C82.1586 43.7808 81.6186 44.436 80.9274 44.8968C80.2355 45.3574 79.4226 45.6024 78.5914 45.6008C78.0387 45.606 77.4906 45.5009 76.9791 45.2915C76.4676 45.0822 76.003 44.7728 75.6126 44.3815C75.2223 43.9902 74.914 43.525 74.7058 43.013C74.4976 42.501 74.3937 41.9526 74.4002 41.4ZM80.4162 41.4C80.4074 41.041 80.2924 40.6928 80.0858 40.3992C79.9314 40.1796 79.7305 39.9968 79.4973 39.8638C79.2642 39.7308 79.0045 39.6509 78.7369 39.6298C78.4693 39.6087 78.2004 39.6469 77.9493 39.7418C77.6982 39.8366 77.4711 39.9857 77.2842 40.1784C77.0344 40.436 76.8661 40.7617 76.8005 41.1145C76.7349 41.4674 76.7749 41.8317 76.9154 42.162C77.0558 42.4922 77.2906 42.7737 77.5903 42.9711C77.89 43.1686 78.2413 43.2732 78.6002 43.272C78.9682 43.2792 79.3294 43.172 79.6338 42.965C79.9382 42.7581 80.1708 42.4617 80.2994 42.1168C80.3842 41.888 80.4218 41.644 80.4082 41.4H80.4162ZM83.8938 35.32C83.8938 35.0384 83.9778 34.7632 84.1338 34.5288C84.2508 34.3536 84.4051 34.2066 84.5857 34.0983C84.7663 33.99 84.9687 33.9231 85.1783 33.9025C85.3879 33.8818 85.5994 33.9079 85.7977 33.9789C85.996 34.0498 86.1761 34.1638 86.325 34.3128C86.5241 34.5118 86.6596 34.7655 86.7146 35.0416C86.7698 35.3176 86.741 35.604 86.6338 35.8648C86.526 36.1251 86.3434 36.3475 86.1092 36.504C85.8749 36.6605 85.5995 36.744 85.3178 36.744C84.9414 36.7398 84.5816 36.5884 84.3155 36.3223C84.0493 36.0561 83.898 35.6963 83.8938 35.32ZM84.1258 37.44H86.5258V45.36H84.1258V37.44ZM96.7978 41.4C96.8243 41.9268 96.7465 42.4537 96.569 42.9504C96.3919 43.4472 96.1181 43.904 95.7634 44.2944C95.4084 44.6846 94.9799 45.001 94.5026 45.2256C94.0253 45.4496 93.5085 45.5772 92.9818 45.6008C92.5347 45.6305 92.0866 45.5589 91.6711 45.3913C91.2555 45.2237 90.8832 44.9644 90.5818 44.6328V48.5448H88.1818V37.44H90.5818V38.184C90.8835 37.8533 91.2562 37.5952 91.6718 37.429C92.0874 37.2627 92.5353 37.1926 92.9818 37.224C94.0416 37.2717 95.039 37.7385 95.7546 38.5216C96.1089 38.9092 96.3832 39.3629 96.5618 39.8568C96.7402 40.3504 96.821 40.8752 96.7978 41.4ZM94.3978 41.4C94.3881 41.0285 94.269 40.6681 94.0554 40.364C93.8418 40.06 93.5434 39.8248 93.1978 39.6896C92.8516 39.5543 92.4731 39.5242 92.1098 39.6032C91.7466 39.6823 91.4147 39.8665 91.1554 40.1328C90.8962 40.3992 90.7218 40.7368 90.6538 41.1024C90.5861 41.4678 90.6273 41.845 90.7722 42.1872C90.9178 42.5296 91.161 42.8208 91.4714 43.0248C91.7819 43.2293 92.146 43.3375 92.5178 43.336C92.9014 43.3522 93.2803 43.2459 93.5994 43.0325C93.9186 42.819 94.1615 42.5095 94.293 42.1488C94.3802 41.9096 94.4154 41.6544 94.3978 41.4ZM104.104 42.984C104.104 44.808 102.504 45.584 100.808 45.584C100.116 45.6462 99.422 45.4996 98.8144 45.163C98.2069 44.8265 97.7143 44.3154 97.4002 43.696L99.4642 42.528C99.546 42.8134 99.7233 43.0622 99.9665 43.2325C100.21 43.4029 100.504 43.4846 100.8 43.464C101.368 43.464 101.656 43.288 101.656 42.968C101.656 42.096 97.7602 42.56 97.7602 39.816C97.7602 38.088 99.2162 37.224 100.864 37.224C101.491 37.1959 102.113 37.338 102.665 37.6352C103.217 37.9325 103.679 38.3736 104 38.912L101.936 40C101.845 39.7936 101.696 39.618 101.507 39.4945C101.318 39.371 101.098 39.3048 100.872 39.304C100.456 39.304 100.208 39.464 100.208 39.744C100.208 40.656 104.104 40.056 104.104 42.984ZM112.799 37.44V45.36H110.399V44.616C110.127 44.9456 109.78 45.2056 109.389 45.3768C108.997 45.5478 108.57 45.6242 108.143 45.6C106.543 45.6 105.175 44.456 105.175 42.32V37.44H107.575V41.96C107.556 42.1489 107.579 42.3398 107.641 42.5192C107.704 42.6984 107.804 42.8619 107.936 42.9988C108.067 43.1356 108.227 43.2424 108.403 43.312C108.58 43.3812 108.77 43.4112 108.959 43.4C109.823 43.4 110.431 42.888 110.431 41.8V37.44H112.799ZM126.403 40.496V45.36H124.003V40.704C124.003 39.904 123.627 39.408 122.867 39.408C122.107 39.408 121.627 39.96 121.627 40.896V45.36H119.227V40.704C119.227 39.904 118.851 39.408 118.091 39.408C117.331 39.408 116.85 39.96 116.85 40.896V45.36H114.45V37.44H116.85V38.168C117.098 37.8464 117.423 37.5918 117.795 37.4272C118.166 37.2625 118.573 37.1926 118.979 37.224C119.384 37.2029 119.789 37.2878 120.152 37.4701C120.515 37.6524 120.824 37.926 121.05 38.264C121.314 37.9107 121.663 37.63 122.065 37.448C122.467 37.2656 122.907 37.1888 123.347 37.224C125.219 37.224 126.403 38.52 126.403 40.496ZM128.416 37.392C128.883 37.392 129.331 37.2065 129.661 36.8765C129.991 36.5464 130.176 36.0988 130.176 35.632C130.176 35.1652 129.991 34.7175 129.661 34.3875C129.331 34.0574 128.883 33.872 128.416 33.872C127.949 33.872 127.502 34.0574 127.172 34.3875C126.842 34.7175 126.656 35.1652 126.656 35.632C126.656 36.0988 126.842 36.5464 127.172 36.8765C127.502 37.2065 127.949 37.392 128.416 37.392Z" fill="#858C97"/>
</g>
</svg>
