<svg width="157" height="80" viewBox="0 0 157 80" fill="none" xmlns="http://www.w3.org/2000/svg">
<g id="05-light 1">
<path id="Vector" d="M58.2937 35.256H60.6937V44.96H58.2937V35.256ZM61.6457 41.296C61.6457 38.896 63.1177 37.464 65.3897 37.464C67.6617 37.464 69.1337 38.896 69.1337 41.296C69.1337 43.696 67.6937 45.136 65.3897 45.136C63.0857 45.136 61.6457 43.736 61.6457 41.296ZM66.7257 41.296C66.7257 39.976 66.2057 39.2 65.3897 39.2C64.5737 39.2 64.0617 40 64.0617 41.296C64.0617 42.592 64.5657 43.376 65.3897 43.376C66.2137 43.376 66.7257 42.64 66.7257 41.304V41.296ZM70.0377 45.432H72.3417C72.4514 45.6756 72.6367 45.8773 72.8703 46.007C73.1038 46.1368 73.373 46.1876 73.6377 46.152C74.5497 46.152 75.0297 45.656 75.0297 44.936V43.592H74.9817C74.7905 44.0039 74.4802 44.3491 74.0909 44.583C73.7016 44.8168 73.2512 44.9287 72.7977 44.904C71.0457 44.904 69.8857 43.568 69.8857 41.272C69.8857 38.976 70.9897 37.528 72.8297 37.528C73.2974 37.5097 73.7595 37.6347 74.1541 37.8864C74.5488 38.138 74.8571 38.5043 75.0377 38.936V37.6H77.4377V44.88C77.4377 46.632 75.8937 47.72 73.6137 47.72C71.4937 47.72 70.1737 46.768 70.0377 45.44V45.432ZM75.0377 41.288C75.0377 40.12 74.5017 39.384 73.6537 39.384C72.8057 39.384 72.2857 40.112 72.2857 41.288C72.2857 42.464 72.7977 43.128 73.6537 43.128C74.5097 43.128 75.0377 42.48 75.0377 41.296V41.288ZM78.3417 41.288C78.3417 38.888 79.8137 37.456 82.0857 37.456C84.3577 37.456 85.8377 38.888 85.8377 41.288C85.8377 43.688 84.3977 45.128 82.0857 45.128C79.7737 45.128 78.3417 43.736 78.3417 41.296V41.288ZM83.4217 41.288C83.4217 39.968 82.9017 39.192 82.0857 39.192C81.2697 39.192 80.7977 40 80.7977 41.304C80.7977 42.608 81.3017 43.384 82.1177 43.384C82.9337 43.384 83.4217 42.64 83.4217 41.304V41.288ZM86.7497 35.856C86.7433 35.6136 86.8097 35.3752 86.9385 35.1704C87.0353 35.0172 87.165 34.8875 87.3181 34.7905C87.4712 34.6935 87.6439 34.6317 87.8237 34.6096C88.0036 34.5874 88.1862 34.6055 88.3582 34.6626C88.5302 34.7196 88.6875 34.8141 88.8185 34.9392C88.9943 35.1064 89.116 35.3223 89.1681 35.5592C89.2075 35.7362 89.2071 35.9196 89.1669 36.0964C89.1267 36.2731 89.0478 36.4388 88.9358 36.5813C88.8238 36.7238 88.6816 36.8397 88.5193 36.9205C88.3571 37.0014 88.1789 37.0452 87.9977 37.0488C87.8371 37.0598 87.676 37.0375 87.5244 36.9833C87.3728 36.929 87.2341 36.844 87.1169 36.7336C86.9998 36.6231 86.9067 36.4896 86.8433 36.3416C86.7801 36.1936 86.7481 36.0336 86.7497 35.8728V35.856ZM86.7497 37.616H89.1497V44.96H86.7497V37.616ZM97.8617 41.288C97.8617 43.688 96.7977 45.056 94.9737 45.056C94.5062 45.0861 94.0407 44.9719 93.6401 44.7288C93.2393 44.4856 92.9233 44.1248 92.7337 43.696H92.6857V47.312H90.2857V37.6H92.6857V38.912H92.7337C92.914 38.4761 93.2243 38.1063 93.6222 37.853C94.0201 37.5996 94.4864 37.475 94.9577 37.496C96.7977 37.528 97.8937 38.904 97.8937 41.304L97.8617 41.288ZM95.4617 41.288C95.4617 40.12 94.9257 39.376 94.0857 39.376C93.2457 39.376 92.7097 40.128 92.7017 41.288C92.6937 42.448 93.2457 43.192 94.0857 43.192C94.9257 43.192 95.4617 42.464 95.4617 41.304V41.288ZM101.982 37.448C103.974 37.448 105.182 38.392 105.238 39.904H103.054C103.054 39.384 102.622 39.056 101.958 39.056C101.294 39.056 100.998 39.312 100.998 39.688C100.998 40.064 101.262 40.184 101.798 40.296L103.334 40.608C104.798 40.92 105.422 41.512 105.422 42.624C105.422 44.144 104.038 45.12 101.998 45.12C99.9577 45.12 98.6217 44.144 98.5177 42.648H100.83C100.902 43.192 101.334 43.512 102.038 43.512C102.742 43.512 103.062 43.28 103.062 42.896C103.062 42.512 102.838 42.432 102.262 42.312L100.878 42.016C99.4457 41.72 98.6937 40.96 98.6937 39.84C98.7097 38.4 99.9977 37.464 101.982 37.464V37.448ZM113.43 44.944H111.118V43.576H111.07C110.943 44.0353 110.662 44.4373 110.275 44.7153C109.888 44.9932 109.418 45.1304 108.942 45.104C108.577 45.1248 108.212 45.0672 107.872 44.9344C107.531 44.8025 107.223 44.5987 106.968 44.3369C106.714 44.0752 106.518 43.7617 106.395 43.4176C106.271 43.0736 106.223 42.7072 106.254 42.344V37.6H108.654V41.792C108.654 42.664 109.102 43.128 109.846 43.128C110.02 43.1281 110.193 43.0913 110.352 43.02C110.511 42.9478 110.652 42.8427 110.767 42.7116C110.882 42.5806 110.968 42.4267 111.019 42.26C111.07 42.093 111.085 41.9171 111.062 41.744V37.6H113.462L113.43 44.944ZM114.59 37.6H116.91V39.016H116.958C117.085 38.5628 117.359 38.1646 117.737 37.8838C118.115 37.603 118.575 37.4553 119.046 37.464C119.525 37.4257 120 37.569 120.378 37.8655C120.756 38.1619 121.009 38.5898 121.086 39.064H121.134C121.279 38.5848 121.579 38.1672 121.988 37.8776C122.396 37.5881 122.89 37.4426 123.39 37.464C123.716 37.4531 124.041 37.5109 124.344 37.6337C124.646 37.7565 124.919 37.9415 125.146 38.1768C125.372 38.412 125.547 38.6928 125.658 39C125.769 39.3072 125.814 39.6343 125.79 39.96V44.96H123.39V40.6C123.39 39.8 123.03 39.432 122.358 39.432C122.208 39.4308 122.059 39.4617 121.923 39.5227C121.786 39.5837 121.663 39.6734 121.564 39.7856C121.465 39.8976 121.391 40.0304 121.347 40.1736C121.303 40.3168 121.291 40.468 121.31 40.6168V44.9608H119.03V40.5688C119.03 39.8328 118.67 39.4328 118.014 39.4328C117.862 39.4329 117.713 39.4651 117.575 39.5272C117.436 39.5892 117.313 39.68 117.212 39.7936C117.112 39.9072 117.036 40.0404 116.991 40.1848C116.945 40.3296 116.931 40.4823 116.95 40.6328V44.9608H114.55L114.59 37.6ZM51.5825 35.696C51.1754 34.7651 50.6365 33.8976 49.9825 33.12C49.0157 31.9363 47.8091 30.9707 46.4422 30.2868C45.0754 29.603 43.5791 29.2164 42.0521 29.1524C40.525 29.0885 39.0017 29.3487 37.5824 29.9159C36.1632 30.4831 34.8801 31.3444 33.8177 32.4432C32.7553 33.542 31.9376 34.8533 31.4184 36.2908C30.8993 37.7283 30.6905 39.2595 30.8057 40.7835C30.921 42.3076 31.3577 43.7899 32.0871 45.133C32.8165 46.4762 33.8221 47.6496 35.0377 48.576C35.8177 49.1823 36.6796 49.6752 37.5977 50.04C38.8849 50.5675 40.2626 50.8393 41.6537 50.84C44.5254 50.8339 47.2774 49.6894 49.3066 47.6574C51.3357 45.6254 52.4764 42.8717 52.4785 40C52.4806 38.5188 52.1755 37.0533 51.5825 35.696ZM41.6465 31.352C42.8958 31.3519 44.1299 31.6249 45.2625 32.152C44.9863 32.2714 44.6959 32.3547 44.3985 32.4C43.4198 32.5417 42.5131 32.9961 41.8138 33.6954C41.1146 34.3946 40.6602 35.3013 40.5185 36.28C40.4563 36.8289 40.2067 37.3396 39.8117 37.7258C39.4168 38.112 38.9007 38.3501 38.3505 38.4C37.3718 38.5417 36.4651 38.9961 35.7659 39.6954C35.0666 40.3946 34.6122 41.3013 34.4705 42.28C34.4225 42.8019 34.1999 43.2924 33.8385 43.672C33.215 42.3546 32.935 40.9009 33.0243 39.4462C33.1137 37.9915 33.5696 36.583 34.3497 35.3518C35.1297 34.1207 36.2086 33.1068 37.4858 32.4047C38.763 31.7026 40.197 31.3349 41.6545 31.336L41.6465 31.352ZM35.0305 45.6L35.3185 45.336C36.0302 44.646 36.4871 43.7351 36.6145 42.752C36.6662 42.1994 36.9129 41.6833 37.3105 41.296C37.6931 40.8978 38.2081 40.6531 38.7585 40.608C39.7372 40.4664 40.6439 40.012 41.3432 39.3127C42.0425 38.6134 42.4968 37.7068 42.6385 36.728C42.6731 36.15 42.9212 35.6055 43.3345 35.2C43.7266 34.8095 44.2464 34.5737 44.7985 34.536C45.6976 34.4123 46.5362 34.0126 47.1985 33.392C47.9526 34.0177 48.5916 34.7703 49.0865 35.616C49.0561 35.6571 49.0212 35.6947 48.9825 35.728C48.6006 36.1298 48.0863 36.3798 47.5345 36.432C46.5548 36.5712 45.6468 37.0248 44.947 37.7245C44.2473 38.4243 43.7937 39.3323 43.6545 40.312C43.5981 40.8628 43.3531 41.3771 42.9609 41.7678C42.5687 42.1586 42.0535 42.4017 41.5025 42.456C40.5209 42.5966 39.6109 43.0501 38.9076 43.7491C38.2042 44.4481 37.7452 45.3553 37.5985 46.336C37.5555 46.727 37.4212 47.1024 37.2065 47.432C36.3857 46.9447 35.6506 46.3258 35.0305 45.6ZM41.6465 48.688C40.8347 48.6889 40.0268 48.5758 39.2465 48.352C39.5134 47.8544 39.687 47.3122 39.7585 46.752C39.8146 46.2025 40.0585 45.6892 40.4491 45.2986C40.8396 44.908 41.353 44.6641 41.9025 44.608C42.8827 44.4679 43.7912 44.0143 44.492 43.3149C45.1929 42.6154 45.6484 41.7079 45.7905 40.728C45.8466 40.1785 46.0905 39.6652 46.4811 39.2746C46.8716 38.884 47.385 38.6401 47.9345 38.584C48.6721 38.4881 49.3752 38.2135 49.9825 37.784C50.3198 39.0624 50.3597 40.4009 50.0993 41.6971C49.8389 42.9933 49.285 44.2126 48.4802 45.2614C47.6754 46.3103 46.641 47.1609 45.4565 47.7479C44.2719 48.335 42.9686 48.6429 41.6465 48.648V48.688Z" fill="black" fill-opacity="0.5"/>
</g>
</svg>
