<svg width="157" height="80" viewBox="0 0 157 80" fill="none" xmlns="http://www.w3.org/2000/svg">
<g id="06-dark 1">
<path id="Vector" d="M50.015 36.2C50.303 36.2 50.399 36.304 50.399 36.584V42.92H53.655C53.935 42.92 54.039 43.024 54.039 43.304V43.864C54.039 44.144 53.935 44.248 53.655 44.248H49.367C49.087 44.248 48.975 44.144 48.975 43.864V36.584C48.975 36.304 49.087 36.2 49.367 36.2H50.015ZM56.8814 38.992C56.8814 37.144 58.0494 36.032 60.0814 36.032C62.1134 36.032 63.2814 37.144 63.2814 38.992V41.456C63.2814 43.304 62.1054 44.416 60.0814 44.416C58.0574 44.416 56.8814 43.304 56.8814 41.456V38.992ZM61.9374 38.992C61.9374 37.952 61.2894 37.392 60.1214 37.392C58.9534 37.392 58.3134 37.96 58.3134 38.992V41.472C58.3134 42.52 58.9534 43.072 60.1214 43.072C61.2894 43.072 61.9374 42.496 61.9374 41.472V38.992ZM72.8078 39.84C73.1198 39.84 73.1918 39.944 73.1918 40.224V41.744C73.2003 42.102 73.1285 42.4574 72.9818 42.7841C72.835 43.1108 72.6171 43.4005 72.3438 43.632C71.6652 44.1724 70.8095 44.4405 69.9438 44.384C67.8718 44.384 66.7438 43.272 66.7438 41.424V38.944C66.7438 37.12 67.9118 36 69.9438 36C71.5438 36 72.5838 36.632 73.0238 37.896C73.0484 37.9435 73.0616 37.9961 73.0623 38.0495C73.0631 38.103 73.0513 38.1559 73.028 38.2041C73.0047 38.2522 72.9705 38.2943 72.9281 38.3269C72.8857 38.3595 72.8363 38.3818 72.7838 38.392L72.1598 38.608C71.8878 38.704 71.7758 38.648 71.6798 38.368C71.5473 38.0263 71.3046 37.7385 70.9902 37.5501C70.6758 37.3618 70.3076 37.2836 69.9438 37.328C68.7678 37.328 68.1278 37.896 68.1278 38.928V41.472C68.1278 42.52 68.7758 43.072 69.9438 43.072C71.1118 43.072 71.8318 42.536 71.8318 41.752V41.16H70.0958C69.8078 41.16 69.7038 41.048 69.7038 40.768V40.224C69.7038 39.944 69.8078 39.84 70.0958 39.84H72.8078ZM76.4934 38.992C76.4934 37.144 77.6614 36.032 79.6934 36.032C81.7254 36.032 82.8934 37.144 82.8934 38.992V41.456C82.8934 43.304 81.7174 44.416 79.6934 44.416C77.6694 44.416 76.4934 43.304 76.4934 41.456V38.992ZM81.5414 38.992C81.5414 37.952 80.8934 37.392 79.7334 37.392C78.5734 37.392 77.9174 37.96 77.9174 38.992V41.472C77.9174 42.52 78.5654 43.072 79.7334 43.072C80.9014 43.072 81.5414 42.496 81.5414 41.472V38.992ZM86.6622 36.432C86.6622 36.256 86.7182 36.2 86.8942 36.2H87.2622C87.4382 36.2 87.4782 36.256 87.4782 36.432V44.016C87.4782 44.192 87.4782 44.248 87.2622 44.248H86.8942C86.7182 44.248 86.6622 44.192 86.6622 44.016V36.432ZM94.7654 36.2C95.4316 36.2 96.0706 36.4646 96.5417 36.9357C97.0127 37.4068 97.2774 38.0458 97.2774 38.712C97.2774 39.3782 97.0127 40.0171 96.5417 40.4882C96.0706 40.9593 95.4316 41.224 94.7654 41.224H92.3654V44.016C92.3654 44.192 92.3254 44.248 92.1574 44.248H91.7822C91.6142 44.248 91.5502 44.192 91.5502 44.016V36.432C91.5502 36.256 91.6142 36.2 91.7822 36.2H94.7654ZM94.6942 40.432C94.923 40.432 95.1494 40.3872 95.3614 40.2992C95.573 40.2114 95.7651 40.0828 95.927 39.9208C96.0886 39.7592 96.2174 39.5664 96.3054 39.3552C96.4817 38.9276 96.4817 38.4476 96.3054 38.02C96.2174 37.8088 96.0886 37.616 95.927 37.4544C95.7651 37.2923 95.573 37.1638 95.3614 37.076C95.1498 36.9886 94.9231 36.9434 94.6942 36.9432H92.2942V40.4312L94.6942 40.432ZM103.526 36.04C104.144 35.972 104.767 36.1048 105.304 36.4192C105.841 36.7336 106.26 37.212 106.502 37.784C106.566 37.912 106.502 38.016 106.374 38.08L106.022 38.24C105.878 38.296 105.822 38.288 105.734 38.136C105.553 37.7113 105.241 37.3553 104.844 37.1195C104.447 36.8836 103.986 36.7801 103.526 36.824C102.174 36.824 101.438 37.36 101.438 38.32C101.431 38.6136 101.529 38.9 101.716 39.1264C101.903 39.3527 102.165 39.5038 102.454 39.552C102.885 39.6921 103.331 39.7781 103.782 39.808C104.329 39.837 104.868 39.9476 105.382 40.136C105.776 40.2607 106.115 40.5172 106.343 40.8625C106.57 41.2077 106.672 41.6207 106.63 42.032C106.63 43.528 105.542 44.432 103.542 44.432C102.886 44.5071 102.225 44.3552 101.667 44.0016C101.109 43.648 100.69 43.1136 100.478 42.488C100.465 42.4592 100.457 42.428 100.456 42.3968C100.455 42.3656 100.462 42.3336 100.475 42.304C100.488 42.2744 100.507 42.2488 100.531 42.2288C100.555 42.2079 100.584 42.1926 100.614 42.184L100.966 42.056C100.994 42.0448 101.024 42.0392 101.054 42.04C101.085 42.0408 101.113 42.048 101.141 42.0608C101.168 42.0734 101.192 42.0917 101.211 42.1144C101.231 42.1368 101.245 42.1632 101.254 42.192C101.433 42.644 101.752 43.0272 102.163 43.2864C102.574 43.5451 103.057 43.6662 103.542 43.632C105.054 43.632 105.798 43.104 105.798 42.032C105.812 41.7502 105.726 41.4725 105.555 41.2484C105.383 41.0243 105.138 40.8682 104.862 40.808C104.448 40.6845 104.021 40.6093 103.59 40.584L102.726 40.472C102.456 40.4144 102.189 40.3424 101.926 40.256C101.667 40.1777 101.425 40.05 101.214 39.88C101.002 39.6877 100.835 39.4512 100.725 39.1872C100.614 38.9233 100.562 38.6381 100.574 38.352C100.63 36.952 101.678 36.04 103.526 36.04ZM110.942 41.512C110.976 42.0776 111.225 42.6088 111.637 42.9976C111.945 43.2875 112.329 43.4836 112.745 43.563C113.16 43.6424 113.589 43.6018 113.982 43.4459C114.375 43.2899 114.716 43.0252 114.964 42.6827C115.212 42.3402 115.357 41.9341 115.382 41.512V36.432C115.382 36.256 115.438 36.2 115.614 36.2H115.982C116.158 36.2 116.214 36.256 116.214 36.432V41.504C116.214 43.32 115.142 44.416 113.166 44.416C111.19 44.416 110.118 43.32 110.118 41.504V36.432C110.118 36.256 110.174 36.2 110.342 36.2H110.718C110.886 36.2 110.942 36.256 110.942 36.432V41.512ZM127.257 36.2C127.433 36.2 127.489 36.256 127.489 36.432V44.016C127.489 44.192 127.433 44.248 127.257 44.248H126.921C126.753 44.248 126.697 44.192 126.697 44.016V39.4C126.697 38.7284 126.743 38.0575 126.833 37.392H126.785C126.536 38.0006 126.244 38.5913 125.913 39.16L124.193 42.192C124.173 42.2448 124.136 42.2896 124.089 42.3208C124.042 42.3523 123.986 42.3687 123.929 42.368H123.705C123.648 42.368 123.592 42.352 123.543 42.3208C123.495 42.2894 123.457 42.2447 123.433 42.192L121.689 39.128C121.38 38.5673 121.112 37.9844 120.889 37.384H120.841C120.923 38.056 120.966 38.7312 120.969 39.408V44.016C120.969 44.192 120.913 44.248 120.737 44.248H120.425C120.249 44.248 120.193 44.192 120.193 44.016V36.432C120.193 36.256 120.249 36.2 120.425 36.2H120.713C120.779 36.1939 120.845 36.2082 120.903 36.2412C120.96 36.2741 121.006 36.324 121.033 36.384L123.833 41.36L126.617 36.432C126.705 36.264 126.753 36.24 126.929 36.24L127.257 36.2ZM35.7838 43.032V48.816C35.7838 49.0376 35.6958 49.2504 35.539 49.4072C35.3822 49.564 35.1694 49.652 34.9478 49.652C34.7262 49.652 34.5134 49.564 34.3566 49.4072C34.1998 49.2504 34.1118 49.0376 34.1118 48.816V43.04C34.3446 43.21 34.6237 43.3049 34.9118 43.312C35.2259 43.321 35.5336 43.2222 35.7838 43.032ZM42.9038 41.36C42.6916 41.36 42.4881 41.4443 42.3381 41.5943C42.1881 41.7443 42.1038 41.9478 42.1038 42.16V43.168C42.1038 43.3896 42.1918 43.6024 42.3486 43.7592C42.5054 43.916 42.7182 44.004 42.9398 44.004C43.1614 44.004 43.3742 43.916 43.531 43.7592C43.6878 43.6024 43.7758 43.3896 43.7758 43.168V42.2C43.782 42.0853 43.7635 41.9706 43.7214 41.8637C43.6793 41.7568 43.6147 41.6602 43.532 41.5805C43.4493 41.5008 43.3503 41.4398 43.2419 41.4018C43.1335 41.3637 43.0182 41.3495 42.9038 41.36ZM32.2958 45.224C32.0079 45.2154 31.7293 45.1206 31.4958 44.952V50.752C31.4958 50.9748 31.5843 51.1884 31.7418 51.346C31.8994 51.5035 32.113 51.592 32.3358 51.592C32.5586 51.592 32.7722 51.5035 32.9298 51.346C33.0873 51.1884 33.1758 50.9748 33.1758 50.752V44.992C32.9146 45.1608 32.6063 45.2421 32.2958 45.224ZM40.2958 39.624C40.1874 39.6186 40.0791 39.6352 39.9774 39.673C39.8756 39.7108 39.7827 39.7688 39.7041 39.8437C39.6255 39.9185 39.563 40.0085 39.5203 40.1083C39.4776 40.2081 39.4557 40.3155 39.4558 40.424V44.88C39.4558 45.1028 39.5443 45.3164 39.7018 45.474C39.8594 45.6315 40.073 45.72 40.2958 45.72C40.5186 45.72 40.7322 45.6315 40.8898 45.474C41.0473 45.3164 41.1358 45.1028 41.1358 44.88V40.48C41.1423 40.3645 41.1237 40.2489 41.0812 40.1413C41.0387 40.0337 40.9734 39.9366 40.8897 39.8566C40.8061 39.7767 40.7061 39.7159 40.5966 39.6783C40.4872 39.6408 40.3709 39.6274 40.2558 39.6392L40.2958 39.624ZM37.6398 41.336C37.3385 41.3339 37.0451 41.2389 36.7998 41.064V46.88C36.7998 47.1028 36.8883 47.3164 37.0458 47.474C37.2034 47.6315 37.417 47.72 37.6398 47.72C37.8626 47.72 38.0762 47.6315 38.2338 47.474C38.3913 47.3164 38.4798 47.1028 38.4798 46.88V41.072C38.226 41.261 37.9162 41.3596 37.5998 41.352L37.6398 41.336ZM30.4798 45.792V29.544C30.4777 29.3459 30.3975 29.1567 30.2567 29.0174C30.1159 28.8781 29.9259 28.8 29.7278 28.8H29.5518C29.3537 28.8 29.1637 28.8781 29.0229 29.0174C28.8821 29.1567 28.8019 29.3459 28.7998 29.544V45.792C28.7998 45.9914 28.879 46.1827 29.0201 46.3237C29.1611 46.4648 29.3524 46.544 29.5518 46.544H29.7278C29.9272 46.544 30.1185 46.4648 30.2595 46.3237C30.4006 46.1827 30.4798 45.9914 30.4798 45.792ZM32.3838 44.608H32.2078C32.0084 44.608 31.8171 44.5288 31.6761 44.3877C31.535 44.2467 31.4558 44.0554 31.4558 43.856V31.48C31.4579 31.2819 31.5381 31.0927 31.6789 30.9534C31.8197 30.8141 32.0097 30.736 32.2078 30.736H32.3838C32.5819 30.736 32.7719 30.8141 32.9127 30.9534C33.0535 31.0927 33.1337 31.2819 33.1358 31.48V43.872C33.1358 44.0714 33.0566 44.2627 32.9155 44.4037C32.7745 44.5448 32.5832 44.624 32.3838 44.624V44.608ZM35.0318 42.704H34.8478C34.6505 42.704 34.4612 42.6256 34.3217 42.4861C34.1822 42.3465 34.1038 42.1573 34.1038 41.96V33.4C34.1027 33.3016 34.1212 33.204 34.1581 33.1128C34.195 33.0216 34.2497 32.9387 34.3189 32.8687C34.3881 32.7988 34.4704 32.7433 34.5612 32.7054C34.652 32.6675 34.7494 32.648 34.8478 32.648H35.0318C35.2299 32.6501 35.4191 32.7303 35.5584 32.8711C35.6977 33.0119 35.7758 33.2019 35.7758 33.4V41.96C35.7758 42.1573 35.6974 42.3465 35.5579 42.4861C35.4184 42.6256 35.2291 42.704 35.0318 42.704ZM37.6798 40.744H37.5118C37.3137 40.744 37.1237 40.6659 36.9829 40.5266C36.8421 40.3873 36.7619 40.198 36.7598 40V35.392C36.7532 35.2893 36.7678 35.1863 36.8027 35.0894C36.8375 34.9926 36.8918 34.9039 36.9623 34.8289C37.0328 34.7539 37.118 34.6942 37.2125 34.6535C37.307 34.6127 37.4089 34.5918 37.5118 34.592H37.6878C37.8872 34.592 38.0785 34.6712 38.2196 34.8122C38.3606 34.9533 38.4398 35.1445 38.4398 35.344V39.984C38.4409 40.0834 38.4222 40.1821 38.3849 40.2742C38.3476 40.3664 38.2923 40.4502 38.2224 40.5209C38.1525 40.5916 38.0692 40.6477 37.9774 40.686C37.8857 40.7243 37.7872 40.744 37.6878 40.744H37.6798ZM40.3358 39.024H40.1598C39.9604 39.024 39.7691 38.9448 39.6281 38.8037C39.487 38.6627 39.4078 38.4714 39.4078 38.272V37.08C39.4099 36.8819 39.4901 36.6927 39.6309 36.5534C39.7717 36.4141 39.9617 36.336 40.1598 36.336H40.3358C40.5339 36.336 40.7239 36.4141 40.8647 36.5534C41.0055 36.6927 41.0857 36.8819 41.0878 37.08V38.272C41.0878 38.4701 41.0097 38.6601 40.8704 38.8009C40.7311 38.9417 40.5419 39.0219 40.3438 39.024H40.3358Z" fill="#858C97"/>
</g>
</svg>
