<svg width="36" height="24" viewBox="0 0 36 24" fill="none" xmlns="http://www.w3.org/2000/svg">
<g id="Flag_of_India (3) 1">
<g clip-path="url(#clip0_0_6937)">
<path id="Vector" d="M0 0H36V24H0V0Z" fill="white"/>
<path id="Vector_2" d="M0 0H36V8H0V0Z" fill="#F15B25"/>
<path id="Vector_3" d="M0 16H36V24H0V16Z" fill="#006934"/>
<path id="Vector_4" d="M17.9998 15.7C20.0433 15.7 21.6998 14.0435 21.6998 12C21.6998 9.9566 20.0433 8.30005 17.9998 8.30005C15.9564 8.30005 14.2998 9.9566 14.2998 12C14.2998 14.0435 15.9564 15.7 17.9998 15.7Z" fill="#2C2C6F"/>
<path id="Vector_5" d="M17.9998 15.2C19.7671 15.2 21.1998 13.7674 21.1998 12C21.1998 10.2327 19.7671 8.80005 17.9998 8.80005C16.2325 8.80005 14.7998 10.2327 14.7998 12C14.7998 13.7674 16.2325 15.2 17.9998 15.2Z" fill="white"/>
<path id="Vector_6" d="M17.9999 12.6401C18.3533 12.6401 18.6399 12.3536 18.6399 12.0001C18.6399 11.6466 18.3533 11.3601 17.9999 11.3601C17.6464 11.3601 17.3599 11.6466 17.3599 12.0001C17.3599 12.3536 17.6464 12.6401 17.9999 12.6401Z" fill="#2C2C6F"/>
<g id="d">
<g id="c">
<g id="b">
<g id="a">
<path id="Vector_7" d="M17.9999 8.80005L18.1199 10.7257L17.9999 11.6791L17.8799 10.7257L17.9999 8.80005Z" fill="#2C2C6F"/>
<path id="Vector_8" d="M18.3991 8.96629C18.4758 8.97638 18.5461 8.92242 18.5562 8.84576C18.5663 8.7691 18.5123 8.69878 18.4357 8.68868C18.359 8.67859 18.2887 8.73255 18.2786 8.80921C18.2685 8.88587 18.3225 8.9562 18.3991 8.96629Z" fill="#2C2C6F"/>
</g>
<g id="a_2">
<path id="Vector_9" d="M18.0001 15.2002L17.8801 13.2746L18.0001 12.3211L18.1201 13.2746L18.0001 15.2002Z" fill="#2C2C6F"/>
<path id="Vector_10" d="M17.6009 15.034C17.5242 15.0239 17.4539 15.0778 17.4438 15.1545C17.4337 15.2311 17.4877 15.3015 17.5643 15.3116C17.641 15.3217 17.7113 15.2677 17.7214 15.191C17.7315 15.1144 17.6775 15.044 17.6009 15.034Z" fill="#2C2C6F"/>
</g>
</g>
<g id="b_2">
<g id="a_3">
<path id="Vector_11" d="M18.8283 8.90899L18.4458 10.8001L18.0832 11.6899L18.214 10.738L18.8283 8.90899Z" fill="#2C2C6F"/>
<path id="Vector_12" d="M19.1711 9.17286C19.2426 9.20245 19.3244 9.16852 19.354 9.09709C19.3836 9.02566 19.3497 8.94376 19.2783 8.91417C19.2068 8.88458 19.1249 8.9185 19.0954 8.98994C19.0658 9.06137 19.0997 9.14327 19.1711 9.17286Z" fill="#2C2C6F"/>
</g>
<g id="a_4">
<path id="Vector_13" d="M17.1717 15.091L17.5542 13.1999L17.9168 12.3101L17.786 13.262L17.1717 15.091Z" fill="#2C2C6F"/>
<path id="Vector_14" d="M16.8289 14.8271C16.7574 14.7976 16.6756 14.8315 16.646 14.9029C16.6164 14.9743 16.6503 15.0562 16.7217 15.0858C16.7932 15.1154 16.8751 15.0815 16.9046 15.0101C16.9342 14.9386 16.9003 14.8567 16.8289 14.8271Z" fill="#2C2C6F"/>
</g>
</g>
</g>
<g id="c_2">
<g id="b_3">
<g id="a_5">
<path id="Vector_15" d="M19.6005 9.2287L18.7416 10.9564L18.161 11.722L18.5338 10.8364L19.6005 9.2287Z" fill="#2C2C6F"/>
<path id="Vector_16" d="M19.8635 9.57226C19.9248 9.61933 20.0127 9.60776 20.0598 9.54642C20.1068 9.48507 20.0953 9.39719 20.0339 9.35012C19.9726 9.30305 19.8847 9.31462 19.8376 9.37596C19.7906 9.4373 19.8021 9.52519 19.8635 9.57226Z" fill="#2C2C6F"/>
</g>
<g id="a_6">
<path id="Vector_17" d="M16.4005 14.7713L17.2594 13.0436L17.84 12.278L17.4672 13.1636L16.4005 14.7713Z" fill="#2C2C6F"/>
<path id="Vector_18" d="M16.1375 14.4277C16.0762 14.3807 15.9883 14.3922 15.9412 14.4536C15.8941 14.5149 15.9057 14.6028 15.9671 14.6499C16.0284 14.697 16.1163 14.6854 16.1634 14.624C16.2104 14.5627 16.1989 14.4748 16.1375 14.4277Z" fill="#2C2C6F"/>
</g>
</g>
<g id="b_4">
<g id="a_7">
<path id="Vector_19" d="M20.2631 9.73744L18.9863 11.1839L18.2273 11.7732L18.8166 11.0142L20.2631 9.73744Z" fill="#2C2C6F"/>
<path id="Vector_20" d="M20.428 10.1372C20.4751 10.1986 20.563 10.2101 20.6243 10.1631C20.6857 10.116 20.6972 10.0281 20.6502 9.96678C20.6031 9.90544 20.5152 9.89387 20.4539 9.94094C20.3925 9.98801 20.381 10.0759 20.428 10.1372Z" fill="#2C2C6F"/>
</g>
<g id="a_8">
<path id="Vector_21" d="M15.7374 14.2628L17.0142 12.8163L17.7732 12.227L17.1839 12.986L15.7374 14.2628Z" fill="#2C2C6F"/>
<path id="Vector_22" d="M15.5725 13.863C15.5254 13.8017 15.4375 13.7901 15.3762 13.8372C15.3148 13.8842 15.3033 13.9721 15.3503 14.0335C15.3974 14.0948 15.4853 14.1064 15.5466 14.0593C15.608 14.0122 15.6195 13.9244 15.5725 13.863Z" fill="#2C2C6F"/>
</g>
</g>
</g>
</g>
<g id="d_2">
<g id="c_3">
<g id="b_5">
<g id="a_9">
<path id="Vector_23" d="M20.7719 10.4003L19.1643 11.4671L18.2786 11.8398L19.0443 11.2592L20.7719 10.4003Z" fill="#2C2C6F"/>
<path id="Vector_24" d="M20.8276 10.8293C20.8572 10.9007 20.9391 10.9346 21.0105 10.905C21.082 10.8754 21.1159 10.7936 21.0863 10.7221C21.0567 10.6507 20.9748 10.6168 20.9034 10.6463C20.8319 10.6759 20.798 10.7578 20.8276 10.8293Z" fill="#2C2C6F"/>
</g>
<g id="a_10">
<path id="Vector_25" d="M15.2291 13.6002L16.8367 12.5334L17.7224 12.1606L16.9567 12.7413L15.2291 13.6002Z" fill="#2C2C6F"/>
<path id="Vector_26" d="M15.1734 13.1712C15.1438 13.0998 15.0619 13.0659 14.9905 13.0955C14.919 13.125 14.8851 13.2069 14.9147 13.2784C14.9443 13.3498 15.0262 13.3837 15.0976 13.3541C15.169 13.3246 15.203 13.2427 15.1734 13.1712Z" fill="#2C2C6F"/>
</g>
</g>
<g id="b_6">
<g id="a_11">
<path id="Vector_27" d="M21.0911 11.1718L19.2622 11.7861L18.3102 11.917L19.2 11.5543L21.0911 11.1718Z" fill="#2C2C6F"/>
<path id="Vector_28" d="M21.0341 11.6006C21.0442 11.6773 21.1145 11.7313 21.1912 11.7212C21.2679 11.7111 21.3218 11.6408 21.3117 11.5641C21.3016 11.4874 21.2313 11.4335 21.1547 11.4436C21.078 11.4537 21.024 11.524 21.0341 11.6006Z" fill="#2C2C6F"/>
</g>
<g id="a_12">
<path id="Vector_29" d="M14.9099 12.8287L16.7388 12.2144L17.6908 12.0835L16.8009 12.4462L14.9099 12.8287Z" fill="#2C2C6F"/>
<path id="Vector_30" d="M14.9669 12.3998C14.9568 12.3232 14.8864 12.2692 14.8098 12.2793C14.7331 12.2894 14.6792 12.3597 14.6892 12.4364C14.6993 12.5131 14.7697 12.567 14.8463 12.5569C14.923 12.5468 14.9769 12.4765 14.9669 12.3998Z" fill="#2C2C6F"/>
</g>
</g>
</g>
<g id="c_4">
<g id="b_7">
<g id="a_13">
<path id="Vector_31" d="M21.2002 12.0001L19.2746 12.1201L18.3211 12.0001L19.2746 11.8801L21.2002 12.0001Z" fill="#2C2C6F"/>
<path id="Vector_32" d="M21.0342 12.3996C21.0241 12.4763 21.0781 12.5466 21.1547 12.5567C21.2314 12.5668 21.3017 12.5128 21.3118 12.4362C21.3219 12.3595 21.2679 12.2892 21.1913 12.2791C21.1146 12.269 21.0443 12.323 21.0342 12.3996Z" fill="#2C2C6F"/>
</g>
<g id="a_14">
<path id="Vector_33" d="M14.8008 12.0001L16.7264 11.8801L17.6798 12.0001L16.7264 12.1201L14.8008 12.0001Z" fill="#2C2C6F"/>
<path id="Vector_34" d="M14.9668 11.6006C14.9769 11.524 14.9229 11.4536 14.8462 11.4435C14.7696 11.4335 14.6993 11.4874 14.6892 11.5641C14.6791 11.6407 14.733 11.7111 14.8097 11.7212C14.8864 11.7312 14.9567 11.6773 14.9668 11.6006Z" fill="#2C2C6F"/>
</g>
</g>
<g id="b_8">
<g id="a_15">
<path id="Vector_35" d="M21.091 12.8283L19.1999 12.4458L18.3101 12.0832L19.262 12.214L21.091 12.8283Z" fill="#2C2C6F"/>
<path id="Vector_36" d="M20.8274 13.1709C20.7978 13.2423 20.8317 13.3242 20.9032 13.3538C20.9746 13.3834 21.0565 13.3495 21.0861 13.278C21.1157 13.2066 21.0817 13.1247 21.0103 13.0951C20.9389 13.0655 20.857 13.0994 20.8274 13.1709Z" fill="#2C2C6F"/>
</g>
<g id="a_16">
<path id="Vector_37" d="M14.9095 11.1717L16.8006 11.5542L17.6904 11.9168L16.7384 11.786L14.9095 11.1717Z" fill="#2C2C6F"/>
<path id="Vector_38" d="M15.1731 10.8291C15.2027 10.7577 15.1688 10.6758 15.0973 10.6462C15.0259 10.6166 14.944 10.6505 14.9144 10.722C14.8848 10.7934 14.9187 10.8753 14.9902 10.9049C15.0616 10.9345 15.1435 10.9006 15.1731 10.8291Z" fill="#2C2C6F"/>
</g>
</g>
</g>
</g>
<g id="d_3">
<g id="c_5">
<g id="b_9">
<g id="a_17">
<path id="Vector_39" d="M20.7715 13.5998L19.0439 12.7409L18.2782 12.1602L19.1639 12.533L20.7715 13.5998Z" fill="#2C2C6F"/>
<path id="Vector_40" d="M20.428 13.8627C20.3809 13.9241 20.3925 14.012 20.4538 14.059C20.5152 14.1061 20.6031 14.0945 20.6501 14.0332C20.6972 13.9718 20.6856 13.884 20.6243 13.8369C20.5629 13.7898 20.4751 13.8014 20.428 13.8627Z" fill="#2C2C6F"/>
</g>
<g id="a_18">
<path id="Vector_41" d="M15.2289 10.4L16.9566 11.2589L17.7223 11.8395L16.8366 11.4667L15.2289 10.4Z" fill="#2C2C6F"/>
<path id="Vector_42" d="M15.5725 10.137C15.6196 10.0757 15.608 9.98779 15.5467 9.94072C15.4853 9.89366 15.3974 9.90523 15.3504 9.96657C15.3033 10.0279 15.3149 10.1158 15.3762 10.1629C15.4375 10.2099 15.5254 10.1984 15.5725 10.137Z" fill="#2C2C6F"/>
</g>
</g>
<g id="b_10">
<g id="a_19">
<path id="Vector_43" d="M20.2628 14.2626L18.8163 12.9858L18.227 12.2268L18.986 12.8161L20.2628 14.2626Z" fill="#2C2C6F"/>
<path id="Vector_44" d="M19.863 14.4275C19.8017 14.4746 19.7901 14.5625 19.8372 14.6238C19.8842 14.6852 19.9721 14.6967 20.0335 14.6497C20.0948 14.6026 20.1064 14.5147 20.0593 14.4534C20.0122 14.392 19.9244 14.3805 19.863 14.4275Z" fill="#2C2C6F"/>
</g>
<g id="a_20">
<path id="Vector_45" d="M15.7377 9.73741L17.1842 11.0142L17.7735 11.7732L17.0145 11.1839L15.7377 9.73741Z" fill="#2C2C6F"/>
<path id="Vector_46" d="M16.1375 9.57246C16.1988 9.52539 16.2104 9.43751 16.1633 9.37616C16.1163 9.31482 16.0284 9.30325 15.967 9.35032C15.9057 9.39739 15.8941 9.48527 15.9412 9.54662C15.9883 9.60796 16.0761 9.61953 16.1375 9.57246Z" fill="#2C2C6F"/>
</g>
</g>
</g>
<g id="c_6">
<g id="b_11">
<g id="a_21">
<path id="Vector_47" d="M19.5997 14.7712L18.5329 13.1635L18.1602 12.2778L18.7408 13.0435L19.5997 14.7712Z" fill="#2C2C6F"/>
<path id="Vector_48" d="M19.1707 14.8269C19.0993 14.8565 19.0654 14.9384 19.095 15.0098C19.1246 15.0812 19.2064 15.1151 19.2779 15.0856C19.3493 15.056 19.3832 14.9741 19.3537 14.9026C19.3241 14.8312 19.2422 14.7973 19.1707 14.8269Z" fill="#2C2C6F"/>
</g>
<g id="a_22">
<path id="Vector_49" d="M16.4003 9.22857L17.4671 10.8362L17.8398 11.7219L17.2592 10.9562L16.4003 9.22857Z" fill="#2C2C6F"/>
<path id="Vector_50" d="M16.8293 9.17288C16.9007 9.1433 16.9346 9.0614 16.905 8.98997C16.8754 8.91853 16.7936 8.88461 16.7221 8.9142C16.6507 8.94379 16.6168 9.02568 16.6463 9.09712C16.6759 9.16855 16.7578 9.20247 16.8293 9.17288Z" fill="#2C2C6F"/>
</g>
</g>
<g id="b_12">
<g id="a_23">
<path id="Vector_51" d="M18.8279 15.0909L18.2136 13.2619L18.0828 12.3099L18.4455 13.1998L18.8279 15.0909Z" fill="#2C2C6F"/>
<path id="Vector_52" d="M18.3994 15.0336C18.3227 15.0437 18.2687 15.1141 18.2788 15.1907C18.2889 15.2674 18.3592 15.3213 18.4359 15.3112C18.5126 15.3012 18.5665 15.2308 18.5564 15.1542C18.5463 15.0775 18.476 15.0235 18.3994 15.0336Z" fill="#2C2C6F"/>
</g>
<g id="a_24">
<path id="Vector_53" d="M17.1721 8.90888L17.7864 10.7378L17.9172 11.6898L17.5545 10.8L17.1721 8.90888Z" fill="#2C2C6F"/>
<path id="Vector_54" d="M17.6006 8.96612C17.6773 8.95603 17.7313 8.8857 17.7212 8.80904C17.7111 8.73238 17.6408 8.67842 17.5641 8.68851C17.4874 8.69861 17.4335 8.76893 17.4436 8.84559C17.4537 8.92225 17.524 8.97621 17.6006 8.96612Z" fill="#2C2C6F"/>
</g>
</g>
</g>
</g>
</g>
</g>
<defs>
<clipPath id="clip0_0_6937">
<rect width="36" height="24" rx="2" fill="white"/>
</clipPath>
</defs>
</svg>
