<svg width="31" height="30" viewBox="0 0 31 30" fill="none" xmlns="http://www.w3.org/2000/svg">
<g id="Frame" clip-path="url(#clip0_0_318)">
<g id="Group">
<path id="Vector" d="M21.0007 4.798C21.0007 5.40902 21.0007 5.96995 21.0007 6.52087C20.9904 7.6227 20.2072 8.38397 19.084 8.39399C16.6522 8.40401 14.2204 8.40401 11.7885 8.39399C10.6859 8.39399 9.89249 7.6227 9.89249 6.55092C9.88219 4.98831 9.88219 3.42571 9.89249 1.86311C9.89249 0.771286 10.6859 0.0100167 11.8194 0C14.241 0 16.6522 0 19.0737 0C20.2278 0 21.0007 0.771285 21.0007 1.89316C21.0007 2.44407 21.0007 2.99499 21.0007 3.59599C21.1552 3.59599 21.2892 3.59599 21.4231 3.59599C22.4948 3.59599 23.5562 3.59599 24.6278 3.59599C27.9768 3.60601 30.6971 6.0601 30.8723 9.23539C31.0475 12.4908 28.6878 15.1553 25.3079 15.5359C25.0194 15.5659 24.7309 15.596 24.3187 15.6361C24.5454 15.8264 24.7103 15.9366 24.8442 16.0868C25.0915 16.3573 25.0812 16.6978 24.8339 16.9282C24.5969 17.1586 24.2672 17.1786 24.0096 16.9382C23.4634 16.4474 22.9276 15.9366 22.4124 15.4157C22.1651 15.1653 22.1651 14.8548 22.4124 14.6043C22.9276 14.0835 23.4531 13.5626 23.9889 13.0618C24.2466 12.8314 24.5969 12.8514 24.8236 13.0818C25.0709 13.3122 25.0812 13.6528 24.8339 13.9232C24.6999 14.0634 24.5351 14.1836 24.4114 14.3539C26.0086 14.374 27.41 13.9232 28.4301 12.7312C29.7285 11.2187 30.0273 9.49583 29.203 7.6828C28.3683 5.84975 26.8536 4.88815 24.7824 4.81803C23.5459 4.76795 22.299 4.798 21.0007 4.798ZM15.4466 7.202C16.6316 7.202 17.8166 7.202 18.9913 7.202C19.5477 7.202 19.7641 6.99165 19.7641 6.45075C19.7641 4.94825 19.7641 3.45576 19.7641 1.95326C19.7641 1.41235 19.5477 1.202 18.9913 1.202C16.6213 1.202 14.2616 1.202 11.8916 1.202C11.3351 1.202 11.1187 1.41235 11.1187 1.95326C11.1187 3.45576 11.1187 4.94825 11.1187 6.45075C11.1187 6.99165 11.3351 7.202 11.8916 7.202C13.0766 7.202 14.2616 7.202 15.4466 7.202Z" fill="white"/>
<path id="Vector_2" d="M9.89253 15.536C8.25413 15.6061 6.62603 15.5059 5.05975 15.7664C2.68974 16.167 1.14407 18.3106 1.25742 20.6745C1.37077 22.9183 3.13283 24.7814 5.48224 25.1119C5.80167 25.152 6.12111 25.172 6.48177 25.142C6.34781 25.0018 6.19324 24.8816 6.06959 24.7313C5.82228 24.4609 5.81198 24.1303 6.04898 23.8899C6.28598 23.6395 6.66724 23.6195 6.94546 23.8899C7.46069 24.3707 7.97591 24.8715 8.47052 25.3824C8.74874 25.6629 8.73843 25.9734 8.46021 26.2538C7.9656 26.7447 7.47099 27.2355 6.95577 27.7063C6.65694 27.9767 6.30659 27.9767 6.05928 27.7263C5.80167 27.4759 5.82228 27.1253 6.11081 26.8348C6.23446 26.7146 6.37872 26.6145 6.50237 26.5143C5.68832 26.354 4.91549 26.2639 4.19418 26.0335C1.48412 25.1921 -0.247023 22.6078 0.0311965 19.8932C0.31972 17.0585 2.50426 14.8248 5.33797 14.4742C5.89441 14.4041 6.46116 14.4141 7.0279 14.4041C7.9656 14.3941 8.90331 14.4041 9.88223 14.4041C9.88223 13.8432 9.88223 13.3123 9.88223 12.7814C9.88223 11.5393 10.6344 10.8081 11.9225 10.8081C14.2719 10.8081 16.6316 10.8081 18.981 10.8081C20.2382 10.8081 20.9904 11.5493 20.9904 12.7714C20.9904 14.2739 20.9904 15.7664 20.9904 17.2689C20.9904 18.4609 20.2176 19.2021 18.9913 19.2021C16.6213 19.2021 14.2616 19.2021 11.8916 19.2021C10.6344 19.2021 9.88223 18.4609 9.88223 17.2388C9.88223 16.7079 9.89253 16.1871 9.89253 15.536ZM15.4054 18.0001C16.6007 18.0001 17.796 18.0001 18.9913 18.0001C19.5478 18.0001 19.7642 17.7897 19.7642 17.2488C19.7642 15.7463 19.7642 14.2538 19.7642 12.7513C19.7642 12.2104 19.5478 12.0001 18.9913 12.0001C16.6213 12.0001 14.2616 12.0001 11.8916 12.0001C11.3351 12.0001 11.1188 12.2104 11.1188 12.7513C11.1188 14.2538 11.1188 15.7463 11.1188 17.2488C11.1188 17.7897 11.3351 18.0001 11.8916 18.0001C13.0663 18.0001 14.2307 18.0001 15.4054 18.0001Z" fill="white"/>
<path id="Vector_3" d="M15.4673 21.5959C16.6626 21.5959 17.8579 21.5959 19.0532 21.5959C20.2073 21.5959 21.0007 22.3572 21.0007 23.4691C21.011 25.0217 21.011 26.5642 21.0007 28.1168C21.0007 29.2387 20.2073 29.9899 19.0532 29.9899C16.6523 29.9899 14.241 29.9899 11.8401 29.9899C10.6654 29.9899 9.89258 29.2287 9.89258 28.0767C9.89258 26.5542 9.89258 25.0317 9.89258 23.5091C9.89258 22.3472 10.6757 21.5959 11.8813 21.5959C13.0766 21.5959 14.272 21.5959 15.4673 21.5959ZM15.4467 28.798C16.6317 28.798 17.8167 28.798 18.9914 28.798C19.5478 28.798 19.7642 28.5876 19.7642 28.0467C19.7642 26.5442 19.7642 25.0517 19.7642 23.5492C19.7642 23.0083 19.5478 22.798 18.9914 22.798C16.6214 22.798 14.2617 22.798 11.8916 22.798C11.3352 22.798 11.1188 23.0083 11.1188 23.5492C11.1188 25.0517 11.1188 26.5442 11.1188 28.0467C11.1188 28.5876 11.3352 28.798 11.8916 28.798C13.0766 28.798 14.2617 28.798 15.4467 28.798Z" fill="white"/>
<path id="Vector_4" d="M6.53295 4.79802C4.59572 4.79802 2.77184 4.79802 0.947956 4.79802C0.834608 4.79802 0.710955 4.80803 0.597606 4.79802C0.25756 4.76797 0.0102539 4.52757 0.0102539 4.21705C0.0102539 3.8865 0.247256 3.62606 0.618215 3.60603C0.947956 3.586 1.288 3.59601 1.61774 3.59601C3.22523 3.59601 4.83272 3.59601 6.54326 3.59601C6.35778 3.41571 6.22382 3.29551 6.10017 3.1653C5.81164 2.86479 5.80134 2.51421 6.06925 2.26379C6.32686 2.02339 6.67722 2.03341 6.96574 2.30386C7.45005 2.76463 7.93435 3.23541 8.40836 3.7062C8.7484 4.05678 8.7484 4.34727 8.40836 4.68783C7.95496 5.1486 7.49126 5.59935 7.01726 6.04009C6.67722 6.36062 6.33717 6.38065 6.06925 6.12022C5.79103 5.85979 5.83225 5.49919 6.1723 5.16863C6.26504 5.06847 6.36808 4.95828 6.53295 4.79802Z" fill="white"/>
<path id="Vector_5" d="M15.4051 6.0001C14.6323 6.0001 13.8594 6.0001 13.0866 6.0001C12.6332 6.0001 12.355 5.76972 12.355 5.3991C12.355 5.0385 12.6332 4.7981 13.0866 4.7981C14.6529 4.7981 16.2191 4.7981 17.7957 4.7981C18.2491 4.7981 18.5273 5.02848 18.5273 5.3991C18.5273 5.7597 18.2491 6.0001 17.7957 6.0001C17.0023 6.0001 16.1985 6.0001 15.4051 6.0001Z" fill="white"/>
<path id="Vector_6" d="M16.6829 3.59598C16.281 3.59598 15.8895 3.606 15.4876 3.59598C15.096 3.58597 14.8384 3.34557 14.8281 3.005C14.8281 2.66443 15.0857 2.41401 15.4773 2.404C16.2707 2.39398 17.0745 2.39398 17.8679 2.404C18.2595 2.404 18.5171 2.65441 18.5274 2.99498C18.5274 3.33555 18.2698 3.58597 17.8782 3.59598C17.4764 3.606 17.0848 3.59598 16.6829 3.59598Z" fill="white"/>
<path id="Vector_7" d="M13.5917 3.01511C13.5814 3.33564 13.2929 3.60609 12.9632 3.59607C12.6334 3.58606 12.3552 3.30559 12.3655 2.98506C12.3758 2.65451 12.6643 2.39407 12.9941 2.40409C13.3238 2.4141 13.602 2.69457 13.5917 3.01511Z" fill="white"/>
<path id="Vector_8" d="M15.4772 15.5959C16.2501 15.5959 17.0229 15.5959 17.7957 15.5959C18.2491 15.5959 18.5273 15.8263 18.5273 16.1969C18.5273 16.5575 18.2491 16.798 17.7957 16.798C16.2294 16.798 14.6632 16.798 13.0866 16.798C12.6332 16.798 12.355 16.5676 12.355 16.1969C12.355 15.8363 12.6332 15.606 13.0866 15.5959C13.8903 15.5959 14.6838 15.5959 15.4772 15.5959Z" fill="white"/>
<path id="Vector_9" d="M16.6417 14.4041C16.2604 14.4041 15.8688 14.4141 15.4876 14.4041C15.096 14.3941 14.8384 14.1437 14.8384 13.8031C14.8384 13.4625 15.096 13.2121 15.4876 13.2021C16.281 13.1921 17.0847 13.1921 17.8782 13.2021C18.2698 13.2021 18.5274 13.4525 18.5274 13.7931C18.5274 14.1336 18.2698 14.3841 17.8782 14.3941C17.466 14.4041 17.0538 14.4041 16.6417 14.4041Z" fill="white"/>
<path id="Vector_10" d="M12.9732 14.3939C12.6435 14.3939 12.355 14.1234 12.355 13.8029C12.355 13.4724 12.6332 13.2019 12.9629 13.2019C13.303 13.2019 13.5812 13.4724 13.5812 13.7929C13.5915 14.1234 13.3133 14.3939 12.9732 14.3939Z" fill="white"/>
<path id="Vector_11" d="M14.8074 26.2438C15.5184 25.5726 16.2191 24.9115 16.9198 24.2504C17.0125 24.1603 17.095 24.0701 17.198 23.99C17.4556 23.7797 17.806 23.7897 18.0327 24C18.2697 24.2204 18.3006 24.5509 18.0739 24.8114C17.8678 25.0518 17.6308 25.2621 17.4041 25.4825C16.7137 26.1536 16.0233 26.8247 15.3226 27.4758C14.9414 27.8264 14.7044 27.8264 14.3231 27.4758C13.8388 27.0251 13.3751 26.5643 12.9011 26.1035C12.6023 25.803 12.592 25.4625 12.8496 25.212C13.1072 24.9516 13.4781 24.9817 13.7976 25.2822C14.1376 25.6027 14.4777 25.9232 14.8074 26.2438Z" fill="white"/>
</g>
</g>
<defs>
<clipPath id="clip0_0_318">
<rect width="30.8824" height="30" fill="white"/>
</clipPath>
</defs>
</svg>
