<svg width="35" height="30" viewBox="0 0 35 30" fill="none" xmlns="http://www.w3.org/2000/svg">
<g id="Frame" clip-path="url(#clip0_0_461)">
<g id="Group">
<path id="Vector" d="M34.0733 8.84358C34.047 8.77367 34.0294 8.69502 34.0119 8.62511C33.9592 8.45907 33.9153 8.2843 33.8363 8.10953C33.2568 6.86863 32.2296 6.23944 30.781 6.23944C30.781 6.23944 30.781 6.23944 30.7722 6.23944C27.6292 6.23944 24.5563 6.24818 21.9313 6.24818C21.9225 6.24818 21.9137 6.24818 21.9049 6.24818V3.49549V3.27702C21.9049 3.04107 21.8961 2.84008 21.8786 2.63909C21.7908 1.09234 20.6231 0 19.0516 0C13.2659 0 7.97181 0 2.85334 0C1.20279 0 0.00877529 1.20594 -4.23705e-06 2.84882C-0.00878377 6.56277 -4.23705e-06 9.85727 -4.23705e-06 12.9246C-4.23705e-06 13.2217 0.0438934 13.5275 0.122909 13.7897C0.403854 14.716 1.04476 15.3452 2.02807 15.6598V16.9793C2.02807 17.8881 2.02807 18.8232 2.02807 19.7495C2.02807 20.1253 2.1861 20.4573 2.44948 20.6583C2.68653 20.8331 2.97626 20.8943 3.27476 20.8156C3.51181 20.7544 3.77519 20.5622 3.97712 20.3175C4.66193 19.4699 5.35551 18.596 6.02275 17.7483C6.49685 17.1541 6.97094 16.5511 7.44504 15.9569C7.45382 15.9394 7.46259 15.9307 7.48015 15.9132L9.12193 13.8334C9.12193 16.2365 9.12193 18.6834 9.13071 21.104C9.13949 22.1963 9.65748 23.0877 10.632 23.6994C11.1149 23.9965 11.6855 24.1363 12.4142 24.1363C14.0999 24.1363 15.7856 24.1363 17.4713 24.1363C19.9471 24.1363 22.5107 24.1363 25.0304 24.1276C25.0304 24.1276 25.0304 24.1276 25.0392 24.1276C25.3816 24.1276 25.5748 24.215 25.7504 24.4597C26.0576 24.8791 26.3825 25.2898 26.7073 25.6831C26.8478 25.8491 26.9795 26.0239 27.12 26.1899C27.3833 26.522 27.6467 26.8541 27.9101 27.1861C28.5159 27.9551 29.148 28.7504 29.7714 29.5281C30.0172 29.834 30.3508 30.0087 30.6932 30.0087C30.702 30.0087 30.7108 30.0087 30.7196 30.0087C31.0268 30 31.3078 29.8514 31.4922 29.5893C31.6326 29.3883 31.7204 29.0912 31.7204 28.7941C31.738 27.326 31.738 25.8054 31.7204 24.2761C31.7204 24.0664 31.738 24.0402 31.9224 23.9878C33.0022 23.647 33.7046 22.8954 34.0031 21.7507C34.0119 21.707 34.0294 21.6633 34.047 21.6196C34.0558 21.5934 34.0646 21.5759 34.0733 21.5497L34.0821 21.5147V8.87853L34.0733 8.84358ZM30.3157 27.9114L28.314 25.3947C28.1647 25.2112 28.0155 25.0277 27.8662 24.8442C27.5326 24.4334 27.1902 24.014 26.8741 23.577C26.4439 22.9828 25.8733 22.7032 25.0743 22.7032H25.0655C20.8075 22.7207 16.4967 22.7119 12.4494 22.7032C12.1157 22.7032 11.8611 22.6682 11.6504 22.5983C10.992 22.3798 10.5618 21.7681 10.5618 21.0516C10.553 16.4375 10.553 12.7061 10.5618 9.31547C10.5618 8.3979 11.2202 7.71628 12.1684 7.66385C12.2738 7.65511 12.3879 7.65511 12.4845 7.65511H13.6083C19.3237 7.65511 25.0304 7.65511 30.7459 7.65511C30.9654 7.65511 31.1849 7.65511 31.3868 7.70754C32.1155 7.87358 32.6511 8.52898 32.6511 9.26304C32.6598 13.4664 32.6598 17.3376 32.6511 21.0953C32.6511 21.9254 32.0102 22.6071 31.1585 22.6944C30.5264 22.7556 30.3157 22.9916 30.3157 23.612C30.3157 24.6781 30.3157 25.753 30.3157 26.8191V27.9114ZM3.45913 15.1442C3.45913 14.6636 3.23086 14.4014 2.75677 14.3402C1.83492 14.2091 1.42228 13.746 1.42228 12.8197C1.42228 9.5252 1.42228 6.2307 1.42228 2.94495C1.42228 1.94873 1.94905 1.42441 2.9587 1.42441C5.62767 1.42441 8.30543 1.42441 10.9744 1.42441C13.6346 1.42441 16.2948 1.42441 18.955 1.42441C19.9295 1.42441 20.4651 1.95747 20.4739 2.93621C20.4739 3.17215 20.4739 3.39936 20.4739 3.6353C20.4739 3.84503 20.4739 4.04602 20.4739 4.25575V6.25692H17.8751C16.0753 6.25692 14.2755 6.25692 12.4669 6.25692C12.3352 6.25692 12.1948 6.25692 12.0631 6.26566C10.4037 6.36178 9.14826 7.65511 9.14826 9.27177C9.14826 10.032 9.13948 10.7836 9.13948 11.5438L6.40905 14.9956L6.40027 15.0044C6.39149 15.0131 6.38271 15.0218 6.37393 15.0306C5.41696 16.2453 4.45122 17.4599 3.48547 18.6746L3.46791 18.7008V17.8445C3.46791 16.9444 3.46791 16.0443 3.45913 15.1442Z" fill="white"/>
<path id="Vector_2" d="M29.1654 10.53C24.126 10.53 19.0953 10.53 14.0559 10.53H14.0032C13.8803 10.53 13.7398 10.53 13.6081 10.565C13.2657 10.6524 13.0726 10.9233 13.0813 11.2728C13.0989 11.6311 13.3272 11.8845 13.6959 11.937C13.7574 11.9457 13.8276 11.9457 13.8891 11.9457C13.9154 11.9457 13.9505 11.9457 13.9769 11.9457C14.0032 11.9457 14.0295 11.9457 14.0559 11.9457H20.2367H29.1654C29.7976 11.9457 30.1224 11.7185 30.14 11.2641C30.1487 11.0631 30.0873 10.8971 29.9644 10.7747C29.8063 10.6174 29.543 10.53 29.1654 10.53Z" fill="white"/>
<path id="Vector_3" d="M29.4901 18.0454C29.3935 18.0366 29.3057 18.0366 29.2267 18.0366C29.2003 18.0366 29.174 18.0366 29.1477 18.0366H21.6236H14.0995C14.0732 18.0366 14.0469 18.0366 14.0205 18.0366C13.9327 18.0366 13.8449 18.0366 13.7571 18.0454C13.3621 18.0803 13.1162 18.3337 13.0987 18.7182C13.0811 19.0765 13.2918 19.3474 13.6606 19.4348C13.7747 19.461 13.8888 19.461 13.9854 19.461H14.0381C19.0951 19.461 24.1521 19.461 29.2091 19.461H29.2618C29.2793 19.461 29.3057 19.461 29.3232 19.461C29.4023 19.461 29.4988 19.461 29.5866 19.4348C29.9729 19.3387 30.1836 19.0591 30.1397 18.6745C30.1046 18.3163 29.8588 18.0803 29.4901 18.0454Z" fill="white"/>
<path id="Vector_4" d="M29.1655 14.2878C27.2077 14.2878 25.2498 14.2878 23.292 14.2878H19.9382C17.9804 14.2878 16.0225 14.2878 14.0647 14.2878C13.4326 14.2878 13.1077 14.5238 13.0902 14.9782C13.0814 15.1705 13.1429 15.3365 13.2658 15.4588C13.4326 15.6249 13.696 15.7035 14.0735 15.7035C16.8478 15.7035 19.6309 15.7035 22.4053 15.7035C24.6616 15.7035 26.9179 15.7035 29.1743 15.7035C29.4113 15.7035 30.1312 15.7035 30.1488 15.0132C30.1576 14.8122 30.0961 14.6549 29.9732 14.5325C29.8064 14.3665 29.543 14.2878 29.1655 14.2878Z" fill="white"/>
</g>
</g>
<defs>
<clipPath id="clip0_0_461">
<rect width="34.0909" height="30" fill="white"/>
</clipPath>
</defs>
</svg>
