<svg width="34" height="30" viewBox="0 0 34 30" fill="none" xmlns="http://www.w3.org/2000/svg">
<g id="Frame" clip-path="url(#clip0_0_467)">
<g id="Group">
<path id="Vector" d="M0 2.36932C0.0625652 2.17482 0.111529 1.97625 0.189056 1.78855C0.641973 0.709982 1.44716 0.110173 2.61958 0.0136046C2.73791 0.00408384 2.8576 0.00408384 2.97729 0.00408384C12.1023 0.00408384 21.2273 0.00680407 30.3523 3.50443e-06C31.4744 -0.00135661 32.3843 0.393076 32.9324 1.38324C33.1595 1.79399 33.3146 2.30403 33.316 2.76919C33.3404 9.07467 33.3377 15.3788 33.3282 21.6843C33.3255 23.247 32.0932 24.4412 30.51 24.4439C27.3423 24.4507 24.1733 24.4467 21.0056 24.4467C20.8777 24.4467 20.7499 24.4467 20.603 24.4467C20.6968 25.2423 20.9471 25.9564 21.4395 26.5317C22.1916 27.4104 22.2814 28.425 22.2079 29.4981C22.1889 29.7837 22.0161 29.951 21.7332 29.9891C21.6258 30.0041 21.517 30 21.4082 30C18.2513 30 15.0932 30 11.9363 30C11.2549 30 11.1516 29.8599 11.1094 29.1826C11.0455 28.1489 11.2944 27.2471 11.9635 26.4338C12.4151 25.8843 12.6409 25.207 12.7307 24.4467C12.5878 24.4467 12.4641 24.4467 12.3389 24.4467C9.24604 24.4467 6.15451 24.4467 3.06161 24.4467C1.42132 24.4467 0.48012 23.7299 0.0408034 22.1481C0.0353629 22.1304 0.0136011 22.1154 0 22.1005C0 15.523 0 8.94682 0 2.36932ZM1.10849 19.9828C11.4998 19.9828 21.8516 19.9828 32.2102 19.9828C32.2156 19.8944 32.2224 19.8304 32.2224 19.7652C32.2224 14.1234 32.2251 8.48166 32.2211 2.83992C32.2197 1.80215 31.5084 1.11802 30.4339 1.11802C21.2586 1.1153 12.0805 1.11666 2.90248 1.11802C2.72022 1.11802 2.53117 1.12618 2.35435 1.17106C1.58589 1.36828 1.10985 2.01841 1.10849 2.86576C1.10849 8.48711 1.10849 14.1071 1.10849 19.7271C1.10849 19.8032 1.10849 19.878 1.10849 19.9828ZM32.2469 21.1402C21.8325 21.1402 11.4821 21.1402 1.13433 21.1402C0.918076 22.6105 1.90552 23.3559 3.06297 23.3518C12.1295 23.3246 21.196 23.3368 30.2625 23.3368C30.3931 23.3368 30.5236 23.3409 30.6529 23.3327C31.3792 23.2906 32.0062 22.7805 32.1612 22.0678C32.2251 21.7754 32.2197 21.4694 32.2469 21.1402ZM13.8609 24.4562C13.7317 25.6599 13.2217 26.6827 12.4981 27.6184C12.2206 27.9775 12.1866 28.4114 12.2492 28.863C15.2033 28.863 18.1425 28.863 21.0804 28.863C21.1443 28.2278 21.0709 27.9122 20.7104 27.4403C20.233 26.8133 19.8522 26.1386 19.6523 25.3729C19.5747 25.0723 19.5149 24.7663 19.4442 24.4562C17.5931 24.4562 15.7515 24.4562 13.8609 24.4562Z" fill="white"/>
<path id="Vector_2" d="M32.247 21.1403C32.2184 21.4694 32.2252 21.7754 32.1613 22.0665C32.0063 22.7792 31.3806 23.2893 30.6529 23.3314C30.5237 23.3396 30.3932 23.3355 30.2626 23.3355C21.1961 23.3355 12.1296 23.3233 3.06307 23.3505C1.90561 23.3545 0.91817 22.6092 1.13443 21.1389C11.4822 21.1403 21.8326 21.1403 32.247 21.1403Z" fill="white"/>
<path id="Vector_3" d="M14.5587 11.9323C15.5285 11.07 16.486 10.2212 17.4421 9.37117C17.9372 8.93186 18.4309 8.49118 18.926 8.05322C19.3857 7.64655 19.6442 7.67647 20.0209 8.17427C20.3977 8.67479 20.7744 9.17668 21.1335 9.65408C22.6881 8.09811 24.2264 6.56118 25.7932 4.99433C25.5851 4.99433 25.377 4.99569 25.1689 4.99433C24.9092 4.99297 24.6467 5.00249 24.3882 4.98209C24.1012 4.95897 23.9081 4.74407 23.8945 4.47069C23.8809 4.19731 24.0536 3.97153 24.3338 3.9076C24.4168 3.88856 24.5052 3.88448 24.5922 3.88448C25.4165 3.88312 26.2407 3.8804 27.0663 3.88448C27.5723 3.8872 27.7804 4.09258 27.7831 4.59582C27.7885 5.43093 27.7872 6.2674 27.7831 7.10251C27.7804 7.52006 27.5709 7.7676 27.2349 7.7744C26.884 7.7812 26.6787 7.53366 26.6746 7.09162C26.6705 6.69175 26.6732 6.29324 26.6732 5.8036C26.4692 5.99945 26.3155 6.13955 26.17 6.2878C25.7823 6.68087 25.2519 7.01682 25.052 7.49014C24.8575 7.95258 25.0016 8.55783 25.0016 9.09915C25.0003 11.4861 25.0016 13.8731 25.0016 16.2601C25.0016 16.3785 25.0016 16.4982 25.0016 16.6736C25.3784 16.6736 25.7415 16.6723 26.1047 16.6736C26.3101 16.675 26.5182 16.6668 26.7222 16.6845C27.0105 16.7103 27.2023 16.9198 27.2173 17.1945C27.2309 17.4693 27.0622 17.6964 26.7807 17.759C26.6759 17.7821 26.5658 17.7835 26.4583 17.7835C18.6363 17.7848 10.8143 17.7848 2.99231 17.7835C2.87398 17.7835 2.75157 17.7794 2.63868 17.7495C2.35985 17.6774 2.22656 17.4761 2.22656 17.1973C2.22792 16.9266 2.43602 16.6995 2.71892 16.6845C3.09567 16.6655 3.47379 16.6804 3.88046 16.6804C3.88726 16.5254 3.89678 16.4098 3.89678 16.2955C3.89814 15.3625 3.90358 14.4294 3.89406 13.4964C3.89134 13.1999 3.99471 12.9836 4.22185 12.7946C6.35042 11.0278 8.47356 9.2542 10.5981 7.4847C11.0591 7.10114 11.3556 7.14467 11.6916 7.64655C12.577 8.97266 13.4597 10.2988 14.3438 11.6249C14.4077 11.7242 14.4771 11.818 14.5587 11.9323ZM23.8782 8.57279C23.1709 9.2814 22.514 9.9261 21.8775 10.5912C21.7659 10.7082 21.6816 10.904 21.6802 11.0645C21.6666 12.8204 21.6707 14.5777 21.6721 16.3336C21.6721 16.4383 21.683 16.5417 21.6898 16.6464C22.4365 16.6464 23.156 16.6464 23.8782 16.6464C23.8782 13.9656 23.8782 11.3134 23.8782 8.57279ZM19.364 9.15219C19.077 9.4079 18.7954 9.62823 18.552 9.88666C18.4405 10.005 18.348 10.194 18.3466 10.3518C18.333 12.3457 18.3371 14.3397 18.3385 16.3336C18.3385 16.437 18.3507 16.5417 18.3575 16.6423C19.1069 16.6423 19.8251 16.6423 20.5405 16.6423C20.55 16.5798 20.5595 16.5485 20.5595 16.5172C20.5609 14.6538 20.5622 12.7891 20.5595 10.9258C20.5595 10.8428 20.5486 10.7435 20.5038 10.681C20.1338 10.175 19.7557 9.67584 19.364 9.15219ZM10.5409 8.97946C9.84319 9.56023 9.20258 10.1056 8.54836 10.6347C8.38923 10.7639 8.32803 10.8931 8.32803 11.0985C8.33619 12.8531 8.33211 14.609 8.33347 16.3635C8.33347 16.4574 8.34435 16.5512 8.35115 16.6505C9.09241 16.6505 9.81055 16.6505 10.5396 16.6505C10.5409 14.1016 10.5409 11.58 10.5409 8.97946ZM11.6875 9.64319C11.6875 12.0411 11.6875 14.3424 11.6875 16.6546C12.4247 16.6546 13.136 16.6546 13.8555 16.6546C13.8664 16.5852 13.8814 16.5335 13.8814 16.4818C13.8827 15.3529 13.8841 14.2254 13.88 13.0965C13.88 13.0136 13.8637 12.9183 13.8188 12.8517C13.1279 11.8031 12.4315 10.7598 11.6875 9.64319ZM17.2041 16.6723C17.2041 14.7953 17.2041 12.9673 17.2041 11.1366C17.1647 11.1407 17.1388 11.1352 17.1266 11.1461C16.452 11.7418 15.7774 12.3376 15.1082 12.9401C15.0511 12.9918 15.0021 13.0856 15.0007 13.1604C14.9939 14.2676 14.9926 15.3733 15.0048 16.4805C15.0048 16.5458 15.1245 16.6627 15.1898 16.6641C15.8494 16.6777 16.5105 16.6723 17.2041 16.6723ZM5.00527 16.6451C5.76965 16.6451 6.48915 16.6451 7.20865 16.6451C7.20865 15.0184 7.20865 13.4189 7.20865 11.7568C6.47419 12.3702 5.77782 12.9483 5.08688 13.5331C5.03927 13.5739 5.01071 13.6637 5.00935 13.7317C5.00391 14.696 5.00527 15.659 5.00527 16.6451Z" fill="white"/>
<path id="Vector_4" d="M29.1363 13.329C28.7038 13.329 28.2699 13.3358 27.8374 13.3276C27.4674 13.3208 27.2335 13.11 27.2226 12.7972C27.2104 12.4762 27.4579 12.2273 27.8333 12.2232C28.7201 12.2137 29.6082 12.2137 30.495 12.2232C30.8718 12.2273 31.1193 12.4721 31.1112 12.7931C31.1016 13.1073 30.8677 13.3208 30.4991 13.3276C30.0448 13.3358 29.5906 13.329 29.1363 13.329Z" fill="white"/>
<path id="Vector_5" d="M29.1744 11.1066C28.731 11.1066 28.2876 11.1121 27.8429 11.1053C27.4634 11.0998 27.2158 10.8713 27.2213 10.549C27.2267 10.2402 27.4702 10.0036 27.8265 10.0008C28.7242 9.99268 29.6232 9.99132 30.5209 10.0022C30.8732 10.0063 31.1153 10.2552 31.1112 10.5653C31.1071 10.8795 30.8677 11.0998 30.5059 11.1066C30.0626 11.1121 29.6178 11.1066 29.1744 11.1066Z" fill="white"/>
<path id="Vector_6" d="M30.2736 15.5596C29.72 15.5596 29.4466 15.3774 29.4439 15.0061C29.4398 14.6334 29.7146 14.4443 30.2654 14.4443C30.8421 14.4443 31.1209 14.632 31.1114 15.0129C31.1019 15.3855 30.8339 15.5596 30.2736 15.5596Z" fill="white"/>
</g>
</g>
<defs>
<clipPath id="clip0_0_467">
<rect width="33.335" height="30" fill="white"/>
</clipPath>
</defs>
</svg>
