<svg width="18" height="13" viewBox="0 0 18 13" fill="none" xmlns="http://www.w3.org/2000/svg">
<g id="Frame" clip-path="url(#clip0_0_17293)">
<g id="Group">
<path id="Vector" d="M8.99696 13C6.86003 13 4.72917 13.0058 2.59224 13C1.35379 12.9942 0.36425 12.2716 0.0789207 11.147C0.0242833 10.9372 0.00607083 10.7158 0.00607083 10.5002C0 7.83146 0 5.16853 0 2.49978C0.00607083 1.04886 1.09882 0 2.61046 0C6.87825 0 11.1521 0 15.4199 0C16.889 0 17.9939 1.05468 17.9939 2.46481C18 5.15105 18 7.84312 17.9939 10.5294C17.9939 11.9453 16.8951 12.9883 15.4199 12.9942C13.283 13.0058 11.14 13 8.99696 13ZM8.97875 12.1201C11.0914 12.1201 13.204 12.1201 15.3167 12.1201C16.4216 12.1201 17.0833 11.485 17.0833 10.4245C17.0833 7.80816 17.0833 5.19184 17.0833 2.57553C17.0833 1.51502 16.4216 0.879874 15.3167 0.879874C11.1035 0.879874 6.89646 0.879874 2.68331 0.879874C1.57841 0.879874 0.916695 1.51502 0.916695 2.57553C0.916695 5.19184 0.916695 7.80816 0.916695 10.4245C0.916695 11.485 1.57841 12.1201 2.68331 12.1201C4.78381 12.1201 6.87825 12.1201 8.97875 12.1201Z" fill="#677587"/>
<path id="Vector_2" d="M5.52422 10.5354C4.63181 10.5354 3.7394 10.5354 2.84699 10.5354C2.36739 10.5354 2.20955 10.3723 2.23383 9.91192C2.31275 8.35029 3.69083 7.01591 5.30567 6.94016C7.04193 6.85858 8.52928 7.99485 8.78426 9.59144C8.80247 9.71963 8.82068 9.84783 8.82675 9.98185C8.83889 10.3781 8.67498 10.5354 8.25609 10.5354C7.91613 10.5354 7.57616 10.5354 7.23619 10.5354C6.65947 10.5354 6.08881 10.5354 5.52422 10.5354ZM7.83721 9.64388C7.66115 8.54841 6.48341 7.7035 5.32996 7.82004C4.25542 7.93075 3.18695 8.85724 3.24159 9.64388C4.77144 9.64388 6.29522 9.64388 7.83721 9.64388Z" fill="#677587"/>
<path id="Vector_3" d="M5.54306 6.50297C4.37139 6.50297 3.41827 5.58813 3.42435 4.46935C3.42435 3.36805 4.37139 2.46487 5.52485 2.46487C6.67831 2.45904 7.6375 3.37971 7.63143 4.48683C7.63143 5.59396 6.68438 6.50297 5.54306 6.50297ZM4.34104 4.46353C4.33497 5.09284 4.85706 5.61144 5.50664 5.6231C6.15015 5.63475 6.69652 5.1278 6.70866 4.50432C6.7208 3.88083 6.19871 3.36805 5.54306 3.3564C4.88741 3.33892 4.34711 3.84004 4.34104 4.46353Z" fill="#677587"/>
<path id="Vector_4" d="M12.8213 6.94011C12.0867 6.94011 11.3521 6.94011 10.6175 6.94011C10.3626 6.94011 10.1804 6.80027 10.1379 6.58467C10.1015 6.3982 10.1987 6.19426 10.3808 6.11268C10.4597 6.07772 10.5568 6.06607 10.6418 6.06607C12.0928 6.06024 13.5498 6.06607 15.0007 6.06607C15.3103 6.06607 15.5167 6.24088 15.5228 6.49726C15.5288 6.75948 15.3164 6.94011 14.9946 6.94594C14.2722 6.94011 13.5498 6.94011 12.8213 6.94011Z" fill="#677587"/>
<path id="Vector_5" d="M12.8395 8.5542C13.5559 8.5542 14.2783 8.5542 14.9947 8.5542C15.2921 8.5542 15.4621 8.68239 15.5168 8.91547C15.5653 9.14272 15.4136 9.3758 15.1707 9.42242C15.0736 9.4399 14.9765 9.4399 14.8793 9.4399C13.5195 9.4399 12.1535 9.4399 10.7937 9.4399C10.7512 9.4399 10.7026 9.4399 10.6601 9.4399C10.3323 9.42825 10.1319 9.25344 10.1441 8.9854C10.1501 8.72901 10.3566 8.5542 10.6662 8.5542C11.3886 8.5542 12.111 8.5542 12.8395 8.5542Z" fill="#677587"/>
<path id="Vector_6" d="M12.8159 4.44576C12.1178 4.44576 11.4257 4.44576 10.7276 4.44576C10.6365 4.44576 10.5454 4.43993 10.4604 4.41663C10.2419 4.35836 10.1144 4.16024 10.1387 3.95047C10.163 3.74652 10.3208 3.58919 10.5394 3.57171C10.7518 3.56006 10.9643 3.56006 11.1768 3.56006C12.4577 3.56006 13.7326 3.56006 15.0136 3.56006C15.3232 3.56006 15.5296 3.7407 15.5296 3.99708C15.5296 4.25347 15.3232 4.43411 15.0196 4.43993C14.965 4.43993 14.9164 4.43993 14.8618 4.43993C14.1819 4.44576 13.4959 4.44576 12.8159 4.44576Z" fill="#677587"/>
</g>
</g>
<defs>
<clipPath id="clip0_0_17293">
<rect width="18" height="13" fill="white"/>
</clipPath>
</defs>
</svg>
