<svg width="19" height="20" viewBox="0 0 19 20" fill="none" xmlns="http://www.w3.org/2000/svg">
<g id="Group">
<path id="Vector" d="M0.900577 6.56512C1.04668 4.42045 1.86355 2.54898 3.29142 0.971216M0.900577 6.56512L0.800812 6.55827C0.948495 4.39065 1.77473 2.4981 3.21727 0.904115L3.21728 0.904104C3.41118 0.689916 3.65016 0.562544 3.90725 0.532109C4.16402 0.501712 4.43106 0.568898 4.68035 0.729988C6.34987 1.79628 7.40796 3.3147 7.84529 5.27982C7.89179 5.48712 7.92266 5.69544 7.95518 5.91487C7.9581 5.93459 7.96104 5.9544 7.964 5.97431C7.97162 5.96953 7.97865 5.96487 7.98515 5.96019C9.9775 4.31066 12.2449 3.29283 14.7723 2.90775L14.7728 2.90767C15.3827 2.81807 16.0047 2.78377 16.6159 2.75644C17.2286 2.72664 17.7082 3.14974 17.8017 3.75635C18.1152 5.73916 18.1552 7.72234 17.9084 9.71927C17.4051 13.8251 14.1127 17.563 9.75175 18.3772L9.75167 18.3772C8.08232 18.6874 6.43816 18.5979 4.82088 18.0665L4.81967 18.0661C4.75425 18.0437 4.70253 18.0405 4.65317 18.0481C4.60161 18.0561 4.54771 18.0765 4.47728 18.1093C3.59482 18.5529 2.71109 18.9971 1.8139 19.4208C1.72446 19.4644 1.6136 19.4789 1.51109 19.4741C1.4081 19.4694 1.30034 19.4446 1.21661 19.3973L1.21623 19.397C1.02576 19.2882 0.957068 19.0921 0.987877 18.9062C1.01828 18.7228 1.14443 18.5468 1.34312 18.4546C1.5413 18.3617 1.74202 18.274 1.94109 18.187C1.97027 18.1743 1.99942 18.1616 2.02851 18.1488C2.25669 18.049 2.4823 17.949 2.70256 17.8409C6.34375 16.0262 9.21165 13.3285 11.3206 9.77958C11.3339 9.7563 11.3474 9.73238 11.3611 9.70809C11.4139 9.61461 11.4698 9.51562 11.5297 9.42603L11.5314 9.42352L11.5314 9.42355C11.6167 9.30404 11.7296 9.22449 11.8568 9.19617C11.9842 9.16776 12.1169 9.19293 12.2365 9.26673C12.4727 9.4097 12.5696 9.7123 12.4322 9.97829L12.4321 9.97865C12.2843 10.2619 12.1234 10.5306 11.9569 10.7978M0.900577 6.56512C0.721264 9.17424 1.485 11.4692 3.18516 13.4363L0.800808 6.55832M0.900577 6.56512L0.800808 6.55832M3.29142 0.971216L11.8719 10.7452M3.29142 0.971216C3.65004 0.575066 4.16142 0.513595 4.6263 0.814122L3.29142 0.971216ZM11.9569 10.7978C11.9569 10.7979 11.9568 10.798 11.9567 10.7981L11.8719 10.7452M11.9569 10.7978C11.9569 10.7978 11.9569 10.7977 11.957 10.7977L11.8719 10.7452M11.9569 10.7978C10.3892 13.3363 8.39423 15.4636 5.97893 17.1653L5.97613 17.1673L5.9761 17.1672C5.94547 17.1873 5.91318 17.2106 5.87678 17.2375M11.8719 10.7452C10.3112 13.2723 8.32546 15.3897 5.92134 17.0836C5.87516 17.1138 5.82368 17.1522 5.76354 17.1971C5.75972 17.1999 5.75587 17.2028 5.75198 17.2057C5.79361 17.2166 5.83521 17.2272 5.87678 17.2375M5.87678 17.2375C6.77154 17.458 7.65092 17.5175 8.53684 17.4483M5.87678 17.2375C5.86106 17.2491 5.84457 17.2614 5.82713 17.2744C5.81014 17.2871 5.79224 17.3005 5.77325 17.3145C6.7065 17.5541 7.62251 17.62 8.54462 17.548C10.7163 17.3704 12.6157 16.5303 14.2096 14.9935C15.571 13.6822 16.5074 12.0907 16.8594 10.2124C17.0587 9.16058 17.0786 8.06093 17.0852 6.98176C17.0902 6.27176 17.0219 5.55799 16.9537 4.84605C16.9301 4.59916 16.9065 4.35248 16.886 4.10626C16.8594 3.77158 16.8129 3.73743 16.4742 3.75109C11.148 4.06528 7.30935 6.70856 4.9318 11.599L8.53684 17.4483M8.53684 17.4483C10.6857 17.2725 12.5632 16.442 14.1402 14.9216L14.1402 14.9215C15.4885 13.6228 16.4134 12.0495 16.7611 10.194L16.7612 10.1938C16.9585 9.15201 16.9786 8.06081 16.9852 6.98115V6.98107C16.9901 6.27664 16.9225 5.57031 16.8546 4.85985C16.8309 4.61196 16.8071 4.36356 16.7863 4.11457L16.7863 4.11417C16.7797 4.03095 16.7723 3.974 16.7615 3.93349C16.751 3.89416 16.7398 3.88051 16.7324 3.87426C16.7246 3.86764 16.7081 3.8583 16.6654 3.853C16.6221 3.84762 16.5633 3.8476 16.4792 3.85098M8.53684 17.4483L16.4792 3.85098M0.800808 6.55832C0.619712 9.1936 1.39201 11.5145 3.10949 13.5017L3.11023 13.5025C3.12888 13.5236 3.14839 13.563 3.1612 13.6142C3.17364 13.664 3.17698 13.7139 3.17245 13.7502C3.12479 14.062 3.0661 14.3691 3.00683 14.6793C2.97559 14.8428 2.94419 15.0071 2.91416 15.1734C2.87809 15.363 2.89567 15.535 2.96974 15.6693C3.04536 15.8065 3.17432 15.8939 3.33594 15.9188C3.49742 15.9437 3.6453 15.8998 3.75799 15.7925C3.86816 15.6877 3.93644 15.5306 3.96168 15.3415L3.96169 15.3414C4.13334 14.0513 4.45639 12.7988 5.02163 11.6429L5.02173 11.6427C7.38402 6.78368 11.191 4.1632 16.4792 3.85098M0.800808 6.55832L16.4792 3.85098M5.88508 8.18663C5.69417 8.42249 5.50329 8.65832 5.31283 8.8953C5.31201 8.87354 5.31121 8.85183 5.31042 8.83017C5.30037 8.55749 5.29062 8.29303 5.25675 8.03429L5.25668 8.03378C5.11714 7.00866 4.96431 5.98355 4.79819 4.95844C4.77433 4.79633 4.69357 4.66964 4.57583 4.59218C4.45903 4.51535 4.31387 4.49215 4.16888 4.52036L4.16837 4.52047C4.02412 4.54931 3.90616 4.62742 3.83302 4.74625C3.76063 4.86386 3.7377 5.01206 3.76376 5.17353C3.80731 5.45248 3.85472 5.72944 3.90193 6.00531C4.01424 6.66146 4.12548 7.31139 4.18132 7.96696L4.18133 7.96709C4.23697 8.61085 4.23064 9.25529 4.22425 9.90628C4.22154 10.1824 4.21881 10.4597 4.2208 10.7387C4.22072 10.7627 4.21037 10.7912 4.18865 10.8433L4.18854 10.8436C4.05796 11.1596 3.92543 11.4749 3.79054 11.7959C3.71323 11.9798 3.63515 12.1656 3.55622 12.3544C3.05337 11.7163 2.65156 11.0364 2.3761 10.2812C1.27223 7.14519 1.77722 4.31352 3.87312 1.77271C3.94749 1.68353 3.99814 1.65609 4.03691 1.65089C4.07589 1.64566 4.13111 1.65908 4.22441 1.72305L4.22455 1.72315C5.97698 2.92018 6.87767 4.59031 6.92378 6.75733C6.92347 6.83618 6.88533 6.94324 6.83318 7.0076L6.83255 7.00838C6.51785 7.40487 6.20142 7.7958 5.88508 8.18663Z" fill="#677587" stroke="#677587" stroke-width="0.2"/>
</g>
</svg>
