<svg width="30" height="30" viewBox="0 0 30 30" fill="none" xmlns="http://www.w3.org/2000/svg">
<g id="plane-svgrepo-com 1">
<path id="Vector" d="M21.4493 17.2959C21.7104 16.9913 21.6839 16.525 21.3903 16.2542C21.0967 15.9834 20.6471 16.0109 20.386 16.3155L21.4493 17.2959ZM15.2269 23.4464L15.73 23.968L15.7446 23.9527L15.7586 23.9366L15.2269 23.4464ZM13.6363 24.2621V25H13.6666L13.6968 24.9972L13.6363 24.2621ZM15.0758 17.2207C15.2968 16.8838 15.2127 16.4248 14.8877 16.1956C14.5629 15.9665 14.1205 16.0538 13.8995 16.3907L15.0758 17.2207ZM27.47 15.8158L28.4995 17.9514L29.7719 17.2915L28.7425 15.1557L27.47 15.8158ZM6.54508 18.0165L2.86984 16.4917L2.34147 17.8619L6.01669 19.3867L6.54508 18.0165ZM2.42269 15.8065V13.8543H1V15.8065H2.42269ZM2.42269 13.8543V8.68927H1V13.8543H2.42269ZM3.13404 7.95142H4.49437V6.47571H3.13404V7.95142ZM5.15087 8.40515L7.09194 13.2309L8.40494 12.6626L6.46387 7.83693L5.15087 8.40515ZM9.06142 14.5921H25.5612V13.1164H9.06142V14.5921ZM20.386 16.3155L14.6953 22.9561L15.7586 23.9366L21.4493 17.2959L20.386 16.3155ZM13.6363 23.5243H12.2214V25H13.6363V23.5243ZM11.5708 22.5655L15.0758 17.2207L13.8995 16.3907L10.3945 21.7356L11.5708 22.5655ZM12.2214 23.5243C11.7708 23.5243 11.4407 23.0972 11.5211 22.6542L10.123 22.3812C9.88058 23.7166 10.8639 25 12.2214 25V23.5243ZM14.7239 22.9246C14.3293 23.3338 14.2472 23.4055 14.1792 23.4403C14.1285 23.4663 14.0673 23.4834 13.5757 23.527L13.6968 24.9972C14.0846 24.963 14.4631 24.941 14.8099 24.7631C15.1396 24.594 15.4131 24.2967 15.73 23.968L14.7239 22.9246ZM27.8633 19.0193H18.0723V20.495H27.8633V19.0193ZM12.5522 19.0193H11.5647V20.495H12.5522V19.0193ZM20.7817 13.4203L15.517 5.9116L14.3663 6.77957L19.631 14.2883L20.7817 13.4203ZM13.7911 5H12.6441V6.47571H13.7911V5ZM10.7706 8.27353L13.8911 14.2076L15.14 13.501L12.0196 7.56688L10.7706 8.27353ZM12.6441 5C11.0242 5 9.99494 6.79846 10.7706 8.27353L12.0196 7.56688C11.761 7.0752 12.1041 6.47571 12.6441 6.47571V5ZM15.517 5.9116C15.1154 5.33885 14.4739 5 13.7911 5V6.47571C14.0186 6.47571 14.2326 6.58866 14.3663 6.77957L15.517 5.9116ZM7.09194 13.2309C7.42352 14.0553 8.20028 14.5921 9.06142 14.5921V13.1164C8.77438 13.1164 8.51547 12.9374 8.40494 12.6626L7.09194 13.2309ZM4.49437 7.95142C4.78143 7.95142 5.04034 8.13036 5.15087 8.40515L6.46387 7.83693C6.13229 7.01257 5.35553 6.47571 4.49437 6.47571V7.95142ZM2.86984 16.4917C2.59977 16.3797 2.42269 16.1083 2.42269 15.8065H1C1 16.7117 1.53126 17.5257 2.34147 17.8619L2.86984 16.4917ZM6.01669 19.3867C7.78123 20.1188 9.66423 20.495 11.5647 20.495V19.0193C9.84523 19.0193 8.14155 18.679 6.54508 18.0165L6.01669 19.3867ZM10.3945 21.7356C10.2969 21.8843 10.1733 22.1039 10.123 22.3812L11.5211 22.6542C11.5198 22.6614 11.5193 22.6582 11.5266 22.6423C11.5342 22.6256 11.5476 22.6009 11.5708 22.5655L10.3945 21.7356ZM28.4995 17.9514C28.7359 18.442 28.3921 19.0193 27.8633 19.0193V20.495C29.4496 20.495 30.4814 18.7632 29.7719 17.2915L28.4995 17.9514ZM2.42269 8.68927C2.42269 8.28175 2.74118 7.95142 3.13404 7.95142V6.47571C1.95544 6.47571 1 7.46675 1 8.68927H2.42269ZM28.7425 15.1557C28.14 13.9059 26.9085 13.1164 25.5612 13.1164V14.5921C26.3696 14.5921 27.1085 15.0658 27.47 15.8158L28.7425 15.1557Z" fill="#155DE9"/>
</g>
</svg>
