<svg width="42" height="42" viewBox="0 0 42 42" fill="none" xmlns="http://www.w3.org/2000/svg">
<g id="Qotes">
<path id="left-quote 1 (Traced)" fill-rule="evenodd" clip-rule="evenodd" d="M14.4699 4.7778C13.3917 5.18767 11.709 6.08804 10.4914 6.90653C9.03459 7.8858 7.03302 9.75349 6.03625 11.0637C4.24586 13.417 3.30924 15.8106 2.77105 19.4085C2.40909 21.8279 2.38335 22.4422 2.34995 29.4645C2.31444 36.9329 2.28207 36.4641 2.87386 37.0558C3.44487 37.6269 3.10705 37.6012 10.0623 37.6012C16.7799 37.6012 16.5447 37.6149 17.0997 37.1916C17.2414 37.0835 17.446 36.8444 17.5543 36.6602L17.7512 36.3252L17.771 29.9621L17.7908 23.599L17.6332 23.2328C17.4482 22.8028 16.9405 22.3236 16.557 22.2171C16.3998 22.1735 15.0898 22.1436 13.3215 22.1433L10.3501 22.1429V21.6844C10.3501 20.6405 10.6478 18.8688 11.0204 17.695C11.5157 16.1344 12.2715 14.8762 13.3663 13.7895C14.2594 12.9029 15.2937 12.1988 16.7476 11.4874C17.8107 10.9673 17.9702 10.8383 18.2623 10.2614C18.3396 10.1087 18.3912 9.83639 18.3937 9.56726C18.3974 9.17766 18.3488 9.01944 17.9897 8.25082C16.6231 5.32606 16.5113 5.14049 15.9405 4.84926C15.5218 4.63569 14.9207 4.60652 14.4699 4.7778ZM36.0323 4.72435C35.6282 4.79895 33.728 5.72878 32.6991 6.35543C29.5775 8.25658 27.1409 10.8036 25.715 13.6559C24.6724 15.7415 24.1559 17.8484 23.7922 21.5005C23.6955 22.471 23.6678 23.9221 23.6417 29.391C23.6056 36.9413 23.5729 36.4632 24.1655 37.0558C24.7365 37.6268 24.3991 37.6012 31.3501 37.6012C38.1253 37.6012 37.8879 37.616 38.4388 37.1618C38.5833 37.0427 38.7866 36.7747 38.8905 36.5662L39.0793 36.1872L39.0777 29.876C39.0761 23.6844 39.0733 23.5586 38.9276 23.2367C38.7569 22.8595 38.4965 22.5657 38.1314 22.3383C37.8821 22.183 37.8038 22.1785 34.7418 22.1429L31.6074 22.1064L31.6296 21.5231C31.6872 20.0164 32.0509 18.2233 32.556 16.9566C33.0754 15.6542 33.6975 14.7042 34.6415 13.7717C35.5006 12.9231 36.3777 12.3184 37.7545 11.6257C39.0744 10.9616 39.4432 10.6556 39.5927 10.1009C39.7695 9.44425 39.6764 9.11343 38.8061 7.30436C38.3204 6.29476 37.8894 5.49982 37.7231 5.30703C37.3008 4.81725 36.6828 4.60426 36.0323 4.72435Z" fill="white"/>
</g>
</svg>
