<svg width="24" height="24" viewBox="0 0 24 24" fill="none" xmlns="http://www.w3.org/2000/svg">
<g id="ship-cruise-holidays-sea-svgrepo-com (1) 10" clip-path="url(#clip0_0_17287)">
<path id="Vector" d="M17.85 20.25H6.15C3.525 20.25 1.275 18.3 0.9 15.675L0.75 15H23.25L23.175 15.675C22.8 18.3 20.55 20.25 17.85 20.25Z" stroke="#155DE9" stroke-miterlimit="10" stroke-linecap="round" stroke-linejoin="round"/>
<path id="Vector_2" d="M21 15H3L4.875 9.975C5.1 9.375 5.625 9 6.3 9H19.5C20.325 9 21 9.675 21 10.5V15Z" stroke="#155DE9" stroke-miterlimit="10" stroke-linecap="round" stroke-linejoin="round"/>
<path id="Vector_3" d="M6.75 12H4.5" stroke="#155DE9" stroke-miterlimit="10" stroke-linecap="round" stroke-linejoin="round"/>
<path id="Vector_4" d="M17.25 9H14.25L15 5.25H18L17.25 9Z" stroke="#155DE9" stroke-miterlimit="10" stroke-linecap="round" stroke-linejoin="round"/>
<path id="Vector_5" d="M11.25 9H8.25L9 5.25H12L11.25 9Z" stroke="#155DE9" stroke-miterlimit="10" stroke-linecap="round" stroke-linejoin="round"/>
<circle id="Ellipse 810" cx="8.75" cy="11.9502" r="0.75" fill="#155DE9"/>
<circle id="Ellipse 811" cx="11.25" cy="11.9502" r="0.75" fill="#155DE9"/>
<circle id="Ellipse 812" cx="13.75" cy="11.9502" r="0.75" fill="#155DE9"/>
</g>
<defs>
<clipPath id="clip0_0_17287">
<rect width="24" height="24" fill="white"/>
</clipPath>
</defs>
</svg>
