<svg width="18" height="18" viewBox="0 0 18 18" fill="none" xmlns="http://www.w3.org/2000/svg">
<g id="truck-svgrepo-com (1) 4">
<path id="Vector" d="M1.02375 3C0.462656 3 0 3.46266 0 4.02375V13.44C0 14.0377 0.482344 14.52 1.08 14.52H2.55375C2.72531 15.5409 3.61266 16.32 4.68 16.32C5.74734 16.32 6.63469 15.5409 6.80625 14.52H10.1363C10.402 14.52 10.6397 14.4075 10.8225 14.2387C11.0095 14.4033 11.2486 14.5172 11.52 14.52H11.9138C12.0853 15.5409 12.9727 16.32 14.04 16.32C15.2283 16.32 16.2 15.3483 16.2 14.16C16.2 12.9717 15.2283 12 14.04 12C12.9727 12 12.0853 12.7791 11.9138 13.8H11.52C11.4525 13.8 11.3498 13.7536 11.2725 13.6762C11.1952 13.5989 11.16 13.5061 11.16 13.44V6.6C11.16 6.465 11.385 6.24 11.52 6.24H14.4C14.6827 6.24 15.0806 6.54234 15.3563 6.87C15.3591 6.87422 15.3647 6.87703 15.3675 6.88125L15.4238 6.96H13.68C13.1063 6.96 12.6 7.42406 12.6 8.04V9.48C12.6 9.77953 12.735 10.0425 12.9263 10.2337C13.1175 10.425 13.3805 10.56 13.68 10.56H17.28V13.44C17.28 13.575 17.055 13.8 16.92 13.8H16.2V14.52H16.92C17.5177 14.52 18 14.0377 18 13.44V9.975C18 9.15094 17.4263 8.4225 17.4263 8.4225H17.415L15.93 6.4425V6.43125L15.9188 6.42C15.5869 6.01922 15.0891 5.52 14.4 5.52H11.52C11.392 5.52 11.2739 5.54672 11.16 5.5875V4.04625C11.16 3.49359 10.7241 3 10.1475 3H1.02375ZM1.02375 3.72H10.1475C10.3022 3.72 10.44 3.86906 10.44 4.04625V13.4962C10.44 13.665 10.3064 13.8 10.1363 13.8H6.80625C6.63469 12.7791 5.74734 12 4.68 12C3.61266 12 2.72531 12.7791 2.55375 13.8H1.08C0.945 13.8 0.72 13.5736 0.72 13.44V4.02375C0.72 3.855 0.852188 3.72 1.02375 3.72ZM13.68 7.68H15.9638L16.8413 8.85C16.8413 8.85 17.1675 9.40828 17.235 9.84H13.68C13.6195 9.84 13.5225 9.795 13.4438 9.71625C13.365 9.6375 13.32 9.54047 13.32 9.48V8.04C13.32 7.85859 13.5338 7.68 13.68 7.68ZM4.68 12.72C5.48016 12.72 6.12 13.3598 6.12 14.16C6.12 14.9602 5.48016 15.6 4.68 15.6C3.87984 15.6 3.24 14.9602 3.24 14.16C3.24 13.3598 3.87984 12.72 4.68 12.72ZM14.04 12.72C14.8402 12.72 15.48 13.3598 15.48 14.16C15.48 14.9602 14.8402 15.6 14.04 15.6C13.2398 15.6 12.6 14.9602 12.6 14.16C12.6 13.3598 13.2398 12.72 14.04 12.72Z" fill="#03203F"/>
</g>
</svg>
